<svg width="50" height="42" viewBox="0 0 50 42" fill="none" xmlns="http://www.w3.org/2000/svg">
<path d="M4.73486 30.8726L2.146 38H1.08789L4.06885 30.1797H4.75098L4.73486 30.8726ZM6.90479 38L4.31055 30.8726L4.29443 30.1797H4.97656L7.96826 38H6.90479ZM6.77051 35.105V35.9536H2.37695V35.105H6.77051ZM12.5283 36.8721V29.75H13.5273V38H12.6143L12.5283 36.8721ZM8.61816 35.1587V35.0459C8.61816 34.6019 8.67188 34.1991 8.7793 33.8374C8.8903 33.4722 9.04606 33.1589 9.24658 32.8975C9.45068 32.6361 9.69238 32.4355 9.97168 32.2959C10.2546 32.1527 10.5697 32.0811 10.917 32.0811C11.2822 32.0811 11.6009 32.1455 11.873 32.2744C12.1488 32.3997 12.3815 32.5841 12.5713 32.8276C12.7646 33.0675 12.9168 33.3576 13.0278 33.6978C13.1388 34.0379 13.2158 34.4229 13.2588 34.8525V35.3467C13.2194 35.7728 13.1424 36.1559 13.0278 36.4961C12.9168 36.8363 12.7646 37.1263 12.5713 37.3662C12.3815 37.6061 12.1488 37.7905 11.873 37.9194C11.5973 38.0448 11.2751 38.1074 10.9062 38.1074C10.5661 38.1074 10.2546 38.034 9.97168 37.8872C9.69238 37.7404 9.45068 37.5345 9.24658 37.2695C9.04606 37.0046 8.8903 36.693 8.7793 36.335C8.67188 35.9733 8.61816 35.5812 8.61816 35.1587ZM9.61719 35.0459V35.1587C9.61719 35.4487 9.64583 35.7209 9.70312 35.9751C9.764 36.2293 9.8571 36.4531 9.98242 36.6465C10.1077 36.8398 10.2671 36.992 10.4604 37.103C10.6538 37.2104 10.8848 37.2642 11.1533 37.2642C11.4827 37.2642 11.7531 37.1943 11.9644 37.0547C12.1792 36.915 12.3511 36.7306 12.48 36.5015C12.6089 36.2723 12.7091 36.0234 12.7808 35.7549V34.4604C12.7378 34.2635 12.6751 34.0737 12.5928 33.8911C12.514 33.7049 12.4102 33.5402 12.2812 33.397C12.1559 33.2502 12.0002 33.1338 11.814 33.0479C11.6313 32.9619 11.4147 32.9189 11.1641 32.9189C10.8919 32.9189 10.6574 32.9762 10.4604 33.0908C10.2671 33.2018 10.1077 33.3558 9.98242 33.5527C9.8571 33.7461 9.764 33.9717 9.70312 34.2295C9.64583 34.4837 9.61719 34.7559 9.61719 35.0459ZM18.7373 36.8721V29.75H19.7363V38H18.8232L18.7373 36.8721ZM14.8271 35.1587V35.0459C14.8271 34.6019 14.8809 34.1991 14.9883 33.8374C15.0993 33.4722 15.255 33.1589 15.4556 32.8975C15.6597 32.6361 15.9014 32.4355 16.1807 32.2959C16.4635 32.1527 16.7786 32.0811 17.126 32.0811C17.4912 32.0811 17.8099 32.1455 18.082 32.2744C18.3577 32.3997 18.5905 32.5841 18.7803 32.8276C18.9736 33.0675 19.1258 33.3576 19.2368 33.6978C19.3478 34.0379 19.4248 34.4229 19.4678 34.8525V35.3467C19.4284 35.7728 19.3514 36.1559 19.2368 36.4961C19.1258 36.8363 18.9736 37.1263 18.7803 37.3662C18.5905 37.6061 18.3577 37.7905 18.082 37.9194C17.8063 38.0448 17.484 38.1074 17.1152 38.1074C16.7751 38.1074 16.4635 38.034 16.1807 37.8872C15.9014 37.7404 15.6597 37.5345 15.4556 37.2695C15.255 37.0046 15.0993 36.693 14.9883 36.335C14.8809 35.9733 14.8271 35.5812 14.8271 35.1587ZM15.8262 35.0459V35.1587C15.8262 35.4487 15.8548 35.7209 15.9121 35.9751C15.973 36.2293 16.0661 36.4531 16.1914 36.6465C16.3167 36.8398 16.4761 36.992 16.6694 37.103C16.8628 37.2104 17.0938 37.2642 17.3623 37.2642C17.6917 37.2642 17.9621 37.1943 18.1733 37.0547C18.3882 36.915 18.5601 36.7306 18.689 36.5015C18.8179 36.2723 18.9181 36.0234 18.9897 35.7549V34.4604C18.9468 34.2635 18.8841 34.0737 18.8018 33.8911C18.723 33.7049 18.6191 33.5402 18.4902 33.397C18.3649 33.2502 18.2091 33.1338 18.0229 33.0479C17.8403 32.9619 17.6237 32.9189 17.373 32.9189C17.1009 32.9189 16.8664 32.9762 16.6694 33.0908C16.4761 33.2018 16.3167 33.3558 16.1914 33.5527C16.0661 33.7461 15.973 33.9717 15.9121 34.2295C15.8548 34.4837 15.8262 34.7559 15.8262 35.0459ZM25.0054 33.1016V38H24.0117V32.1885H24.9785L25.0054 33.1016ZM26.8208 32.1562L26.8154 33.0801C26.7331 33.0622 26.6543 33.0514 26.5791 33.0479C26.5075 33.0407 26.4251 33.0371 26.332 33.0371C26.1029 33.0371 25.9006 33.0729 25.7251 33.1445C25.5496 33.2161 25.401 33.3164 25.2793 33.4453C25.1576 33.5742 25.0609 33.7282 24.9893 33.9072C24.9212 34.0827 24.8765 34.276 24.855 34.4873L24.5757 34.6484C24.5757 34.2975 24.6097 33.9681 24.6777 33.6602C24.7493 33.3522 24.8586 33.0801 25.0054 32.8438C25.1522 32.6038 25.3384 32.4176 25.564 32.2852C25.7931 32.1491 26.0653 32.0811 26.3804 32.0811C26.452 32.0811 26.5343 32.09 26.6274 32.1079C26.7205 32.1222 26.785 32.1383 26.8208 32.1562ZM27.3687 35.1587V35.0352C27.3687 34.6162 27.4295 34.2277 27.5513 33.8696C27.673 33.508 27.8485 33.1947 28.0776 32.9297C28.3068 32.6611 28.5843 32.4535 28.9102 32.3066C29.236 32.1562 29.6012 32.0811 30.0059 32.0811C30.4141 32.0811 30.7811 32.1562 31.1069 32.3066C31.4364 32.4535 31.7157 32.6611 31.9448 32.9297C32.1776 33.1947 32.3548 33.508 32.4766 33.8696C32.5983 34.2277 32.6592 34.6162 32.6592 35.0352V35.1587C32.6592 35.5776 32.5983 35.9661 32.4766 36.3242C32.3548 36.6823 32.1776 36.9956 31.9448 37.2642C31.7157 37.5291 31.4382 37.7368 31.1123 37.8872C30.79 38.034 30.4248 38.1074 30.0166 38.1074C29.6084 38.1074 29.2414 38.034 28.9155 37.8872C28.5897 37.7368 28.3104 37.5291 28.0776 37.2642C27.8485 36.9956 27.673 36.6823 27.5513 36.3242C27.4295 35.9661 27.3687 35.5776 27.3687 35.1587ZM28.3623 35.0352V35.1587C28.3623 35.4487 28.3963 35.7227 28.4644 35.9805C28.5324 36.2347 28.6344 36.4603 28.7705 36.6572C28.9102 36.8542 29.0838 37.0099 29.2915 37.1245C29.4992 37.2355 29.7409 37.291 30.0166 37.291C30.2887 37.291 30.5269 37.2355 30.731 37.1245C30.9386 37.0099 31.1105 36.8542 31.2466 36.6572C31.3826 36.4603 31.4847 36.2347 31.5527 35.9805C31.6243 35.7227 31.6602 35.4487 31.6602 35.1587V35.0352C31.6602 34.7487 31.6243 34.4784 31.5527 34.2241C31.4847 33.9663 31.3809 33.7389 31.2412 33.542C31.1051 33.3415 30.9333 33.1839 30.7256 33.0693C30.5215 32.9548 30.2816 32.8975 30.0059 32.8975C29.7337 32.8975 29.4938 32.9548 29.2861 33.0693C29.082 33.1839 28.9102 33.3415 28.7705 33.542C28.6344 33.7389 28.5324 33.9663 28.4644 34.2241C28.3963 34.4784 28.3623 34.7487 28.3623 35.0352ZM33.6421 35.1587V35.0352C33.6421 34.6162 33.703 34.2277 33.8247 33.8696C33.9465 33.508 34.1219 33.1947 34.3511 32.9297C34.5802 32.6611 34.8577 32.4535 35.1836 32.3066C35.5094 32.1562 35.8747 32.0811 36.2793 32.0811C36.6875 32.0811 37.0545 32.1562 37.3804 32.3066C37.7098 32.4535 37.9891 32.6611 38.2183 32.9297C38.451 33.1947 38.6283 33.508 38.75 33.8696C38.8717 34.2277 38.9326 34.6162 38.9326 35.0352V35.1587C38.9326 35.5776 38.8717 35.9661 38.75 36.3242C38.6283 36.6823 38.451 36.9956 38.2183 37.2642C37.9891 37.5291 37.7116 37.7368 37.3857 37.8872C37.0635 38.034 36.6982 38.1074 36.29 38.1074C35.8818 38.1074 35.5148 38.034 35.189 37.8872C34.8631 37.7368 34.5838 37.5291 34.3511 37.2642C34.1219 36.9956 33.9465 36.6823 33.8247 36.3242C33.703 35.9661 33.6421 35.5776 33.6421 35.1587ZM34.6357 35.0352V35.1587C34.6357 35.4487 34.6698 35.7227 34.7378 35.9805C34.8058 36.2347 34.9079 36.4603 35.0439 36.6572C35.1836 36.8542 35.3573 37.0099 35.5649 37.1245C35.7726 37.2355 36.0143 37.291 36.29 37.291C36.5622 37.291 36.8003 37.2355 37.0044 37.1245C37.2121 37.0099 37.384 36.8542 37.52 36.6572C37.6561 36.4603 37.7581 36.2347 37.8262 35.9805C37.8978 35.7227 37.9336 35.4487 37.9336 35.1587V35.0352C37.9336 34.7487 37.8978 34.4784 37.8262 34.2241C37.7581 33.9663 37.6543 33.7389 37.5146 33.542C37.3786 33.3415 37.2067 33.1839 36.999 33.0693C36.7949 32.9548 36.555 32.8975 36.2793 32.8975C36.0072 32.8975 35.7673 32.9548 35.5596 33.0693C35.3555 33.1839 35.1836 33.3415 35.0439 33.542C34.9079 33.7389 34.8058 33.9663 34.7378 34.2241C34.6698 34.4784 34.6357 34.7487 34.6357 35.0352ZM41.167 33.3433V38H40.168V32.1885H41.1133L41.167 33.3433ZM40.9629 34.874L40.501 34.8579C40.5046 34.4604 40.5565 34.0934 40.6567 33.7568C40.757 33.4167 40.9056 33.1213 41.1025 32.8706C41.2995 32.62 41.5448 32.4266 41.8384 32.2905C42.132 32.1509 42.4722 32.0811 42.8589 32.0811C43.131 32.0811 43.3817 32.1204 43.6108 32.1992C43.84 32.2744 44.0387 32.3944 44.207 32.5591C44.3753 32.7238 44.506 32.9351 44.5991 33.1929C44.6922 33.4507 44.7388 33.7622 44.7388 34.1274V38H43.7451V34.1758C43.7451 33.8714 43.6932 33.6279 43.5894 33.4453C43.4891 33.2627 43.3459 33.1302 43.1597 33.0479C42.9735 32.9619 42.755 32.9189 42.5044 32.9189C42.2108 32.9189 41.9655 32.9709 41.7686 33.0747C41.5716 33.1785 41.4141 33.3218 41.2959 33.5044C41.1777 33.687 41.0918 33.8965 41.0381 34.1328C40.988 34.3656 40.9629 34.6126 40.9629 34.874ZM44.728 34.3262L44.062 34.5303C44.0656 34.2116 44.1175 33.9054 44.2178 33.6118C44.3216 33.3182 44.4702 33.0568 44.6636 32.8276C44.8605 32.5985 45.1022 32.4176 45.3887 32.2852C45.6751 32.1491 46.0028 32.0811 46.3716 32.0811C46.6831 32.0811 46.9588 32.1222 47.1987 32.2046C47.4422 32.2869 47.6463 32.4141 47.811 32.5859C47.9793 32.7542 48.1064 32.9709 48.1924 33.2358C48.2783 33.5008 48.3213 33.8159 48.3213 34.1812V38H47.3223V34.1704C47.3223 33.8446 47.2703 33.5921 47.1665 33.4131C47.0662 33.2305 46.923 33.1034 46.7368 33.0317C46.5542 32.9565 46.3358 32.9189 46.0815 32.9189C45.8631 32.9189 45.6698 32.9565 45.5015 33.0317C45.3332 33.1069 45.1917 33.2108 45.0771 33.3433C44.9626 33.4722 44.8748 33.6208 44.814 33.7891C44.7567 33.9574 44.728 34.1364 44.728 34.3262Z" fill="#232222" fill-opacity="0.35"/>
<circle cx="24.3027" cy="11.8027" r="11.0527" stroke="#55BFEA" stroke-width="1.5"/>
<path d="M24.3027 5.59079L24.3027 17.3935" stroke="#55BFEA" stroke-width="1.5" stroke-linecap="round"/>
<path d="M30.5146 11.8027L18.7119 11.8027" stroke="#55BFEA" stroke-width="1.5" stroke-linecap="round"/>
</svg>
