<svg width="20" height="20" viewBox="0 0 20 20" fill="none" xmlns="http://www.w3.org/2000/svg">
<g clip-path="url(#clip0_826_2409)">
<path d="M17.9169 3.33319H16.1113V4.4443H17.778V16.6665H2.22246V4.4443H3.88913V3.33319H2.08357C1.9537 3.33536 1.82553 3.36309 1.70639 3.41481C1.58724 3.46652 1.47944 3.5412 1.38916 3.63457C1.29888 3.72795 1.22788 3.8382 1.18021 3.95903C1.13254 4.07985 1.10914 4.20888 1.11135 4.33875V16.7721C1.10914 16.9019 1.13254 17.031 1.18021 17.1518C1.22788 17.2726 1.29888 17.3829 1.38916 17.4762C1.47944 17.5696 1.58724 17.6443 1.70639 17.696C1.82553 17.7477 1.9537 17.7755 2.08357 17.7776H17.9169C18.0468 17.7755 18.1749 17.7477 18.2941 17.696C18.4132 17.6443 18.521 17.5696 18.6113 17.4762C18.7016 17.3829 18.7726 17.2726 18.8203 17.1518C18.8679 17.031 18.8913 16.9019 18.8891 16.7721V4.33875C18.8913 4.20888 18.8679 4.07985 18.8203 3.95903C18.7726 3.8382 18.7016 3.72795 18.6113 3.63457C18.521 3.5412 18.4132 3.46652 18.2941 3.41481C18.1749 3.36309 18.0468 3.33536 17.9169 3.33319Z" fill="#494949"/>
<path d="M4.44434 7.77753H5.55545V8.88864H4.44434V7.77753Z" fill="#494949"/>
<path d="M7.77759 7.77753H8.8887V8.88864H7.77759V7.77753Z" fill="#494949"/>
<path d="M11.1112 7.77753H12.2223V8.88864H11.1112V7.77753Z" fill="#494949"/>
<path d="M14.4443 7.77753H15.5554V8.88864H14.4443V7.77753Z" fill="#494949"/>
<path d="M4.44434 10.5556H5.55545V11.6667H4.44434V10.5556Z" fill="#494949"/>
<path d="M7.77759 10.5556H8.8887V11.6667H7.77759V10.5556Z" fill="#494949"/>
<path d="M11.1112 10.5556H12.2223V11.6667H11.1112V10.5556Z" fill="#494949"/>
<path d="M14.4443 10.5556H15.5554V11.6667H14.4443V10.5556Z" fill="#494949"/>
<path d="M4.44434 13.3332H5.55545V14.4443H4.44434V13.3332Z" fill="#494949"/>
<path d="M7.77759 13.3332H8.8887V14.4443H7.77759V13.3332Z" fill="#494949"/>
<path d="M11.1112 13.3332H12.2223V14.4443H11.1112V13.3332Z" fill="#494949"/>
<path d="M14.4443 13.3332H15.5554V14.4443H14.4443V13.3332Z" fill="#494949"/>
<path d="M5.55556 5.55565C5.7029 5.55565 5.84421 5.49712 5.94839 5.39293C6.05258 5.28875 6.11111 5.14744 6.11111 5.0001V1.66676C6.11111 1.51942 6.05258 1.37811 5.94839 1.27392C5.84421 1.16974 5.7029 1.11121 5.55556 1.11121C5.40821 1.11121 5.26691 1.16974 5.16272 1.27392C5.05853 1.37811 5 1.51942 5 1.66676V5.0001C5 5.14744 5.05853 5.28875 5.16272 5.39293C5.26691 5.49712 5.40821 5.55565 5.55556 5.55565Z" fill="#494949"/>
<path d="M14.4443 5.55565C14.5917 5.55565 14.733 5.49712 14.8372 5.39293C14.9414 5.28875 14.9999 5.14744 14.9999 5.0001V1.66676C14.9999 1.51942 14.9414 1.37811 14.8372 1.27392C14.733 1.16974 14.5917 1.11121 14.4443 1.11121C14.297 1.11121 14.1557 1.16974 14.0515 1.27392C13.9473 1.37811 13.8888 1.51942 13.8888 1.66676V5.0001C13.8888 5.14744 13.9473 5.28875 14.0515 5.39293C14.1557 5.49712 14.297 5.55565 14.4443 5.55565Z" fill="#494949"/>
<path d="M7.22241 3.33319H12.778V4.4443H7.22241V3.33319Z" fill="#494949"/>
</g>
<defs>
<clipPath id="clip0_826_2409">
<rect width="20" height="20" fill="white"/>
</clipPath>
</defs>
</svg>
