<svg width="20" height="21" viewBox="0 0 20 21" fill="none" xmlns="http://www.w3.org/2000/svg">
<path d="M16.2502 5.5L15.0277 6.41667C14.7392 6.63304 14.3883 6.75 14.0277 6.75H11.2293C10.9582 6.75011 10.6936 6.83405 10.472 6.99032C10.2504 7.1466 10.0825 7.36757 9.99137 7.62297C9.90021 7.87837 9.89024 8.1557 9.96283 8.41698C10.0354 8.67826 10.187 8.91072 10.3968 9.0825L12.0635 10.4458C12.709 10.974 13.2122 11.6552 13.5271 12.4275C13.8421 13.1998 13.9589 14.0386 13.8668 14.8675L13.8502 15.0175C13.7838 15.6142 13.6372 16.1992 13.4143 16.7567L12.9168 18M2.0835 9.25L4.78183 8.8C5.04357 8.75631 5.31196 8.77575 5.56467 8.8567C5.81738 8.93765 6.04711 9.07777 6.23475 9.26541C6.42239 9.45305 6.56251 9.68278 6.64347 9.93549C6.72442 10.1882 6.74385 10.4566 6.70016 10.7183L6.58766 11.3908C6.49001 11.9775 6.58299 12.58 6.85296 13.1099C7.12294 13.6398 7.55568 14.0692 8.08766 14.335C8.51203 14.5474 8.85131 14.8981 9.04948 15.3293C9.24765 15.7605 9.29286 16.2463 9.17766 16.7067L8.75016 18.4167" stroke="black"/>
<path d="M10.0002 18.4163C14.3724 18.4163 17.9168 14.8719 17.9168 10.4997C17.9168 6.12742 14.3724 2.58301 10.0002 2.58301C5.62791 2.58301 2.0835 6.12742 2.0835 10.4997C2.0835 14.8719 5.62791 18.4163 10.0002 18.4163Z" stroke="black"/>
</svg>
