<svg width="21" height="21" viewBox="0 0 21 21" fill="none" xmlns="http://www.w3.org/2000/svg">
<path d="M4.59375 9.84375H17.7188C17.8928 9.84375 18.0597 9.91289 18.1828 10.036C18.3059 10.159 18.375 10.326 18.375 10.5C18.375 10.674 18.3059 10.841 18.1828 10.964C18.0597 11.0871 17.8928 11.1562 17.7188 11.1562H4.59375C4.4197 11.1562 4.25278 11.0871 4.12971 10.964C4.00664 10.841 3.9375 10.674 3.9375 10.5C3.9375 10.326 4.00664 10.159 4.12971 10.036C4.25278 9.91289 4.4197 9.84375 4.59375 9.84375Z" fill="white"/>
<path d="M4.86563 10.4999L10.3086 15.9415C10.4318 16.0647 10.501 16.2318 10.501 16.4061C10.501 16.5804 10.4318 16.7475 10.3086 16.8707C10.1853 16.994 10.0182 17.0632 9.84395 17.0632C9.66968 17.0632 9.50255 16.994 9.37932 16.8707L3.47307 10.9645C3.41196 10.9035 3.36347 10.8311 3.33039 10.7514C3.2973 10.6716 3.28027 10.5862 3.28027 10.4999C3.28027 10.4135 3.2973 10.3281 3.33039 10.2483C3.36347 10.1686 3.41196 10.0962 3.47307 10.0352L9.37932 4.12898C9.50255 4.00575 9.66968 3.93652 9.84395 3.93652C10.0182 3.93652 10.1853 4.00575 10.3086 4.12898C10.4318 4.2522 10.501 4.41933 10.501 4.5936C10.501 4.76787 10.4318 4.935 10.3086 5.05823L4.86563 10.4999Z" fill="white"/>
</svg>
