<svg width="20" height="21" viewBox="0 0 20 21" fill="none" xmlns="http://www.w3.org/2000/svg">
<path d="M12.4043 15.5003C11.9171 15.5003 11.5016 15.328 11.1577 14.9836C10.8138 14.6391 10.6416 14.2239 10.641 13.7378C10.6404 13.2516 10.8127 12.8358 11.1577 12.4903C11.5027 12.1447 11.9182 11.9728 12.4043 11.9744C12.8904 11.9761 13.306 12.1483 13.651 12.4911C13.996 12.8339 14.1679 13.2494 14.1668 13.7378C14.1657 14.2261 13.9935 14.6416 13.6502 14.9844C13.3068 15.3272 12.8916 15.4991 12.4043 15.5003ZM4.67933 18.0003C4.296 18.0003 3.976 17.8719 3.71933 17.6153C3.46266 17.3586 3.33405 17.0383 3.3335 16.6544V6.01276C3.3335 5.62943 3.46211 5.30943 3.71933 5.05276C3.97655 4.79609 4.29683 4.66748 4.68016 4.66693H6.15433V2.80859H7.05183V4.66693H13.0135V2.80859H13.8468V4.66693H15.321C15.7043 4.66693 16.0246 4.79554 16.2818 5.05276C16.5391 5.30998 16.6674 5.63026 16.6668 6.01359V16.6544C16.6668 17.0378 16.5385 17.358 16.2818 17.6153C16.0252 17.8725 15.7046 18.0008 15.3202 18.0003H4.67933ZM4.67933 17.1669H15.321C15.4488 17.1669 15.5663 17.1136 15.6735 17.0069C15.7807 16.9003 15.8341 16.7825 15.8335 16.6536V9.34693H4.16683V16.6544C4.16683 16.7822 4.22016 16.8997 4.32683 17.0069C4.4335 17.1141 4.551 17.1675 4.67933 17.1669ZM4.16683 8.51276H15.8335V6.01276C15.8335 5.88498 15.7802 5.76748 15.6735 5.66026C15.5668 5.55304 15.4491 5.4997 15.3202 5.50026H4.68016C4.55183 5.50026 4.43405 5.55359 4.32683 5.66026C4.21961 5.76693 4.16627 5.88471 4.16683 6.01359V8.51276Z" fill="#494949"/>
</svg>
