<svg width="20" height="20" viewBox="0 0 20 20" fill="none" xmlns="http://www.w3.org/2000/svg">
<g clip-path="url(#clip0_826_2427)">
<path d="M17.917 3.33319H16.1115V4.4443H17.7781V16.6665H2.22258V4.4443H3.88925V3.33319H2.08369C1.95382 3.33536 1.82566 3.36309 1.70651 3.41481C1.58736 3.46652 1.47957 3.5412 1.38928 3.63457C1.299 3.72795 1.228 3.8382 1.18033 3.95903C1.13266 4.07985 1.10926 4.20888 1.11147 4.33875V16.7721C1.10926 16.9019 1.13266 17.031 1.18033 17.1518C1.228 17.2726 1.299 17.3829 1.38928 17.4762C1.47957 17.5696 1.58736 17.6443 1.70651 17.696C1.82566 17.7477 1.95382 17.7755 2.08369 17.7776H17.917C18.0469 17.7755 18.1751 17.7477 18.2942 17.696C18.4134 17.6443 18.5212 17.5696 18.6114 17.4762C18.7017 17.3829 18.7727 17.2726 18.8204 17.1518C18.8681 17.031 18.8915 16.9019 18.8892 16.7721V4.33875C18.8915 4.20888 18.8681 4.07985 18.8204 3.95903C18.7727 3.8382 18.7017 3.72795 18.6114 3.63457C18.5212 3.5412 18.4134 3.46652 18.2942 3.41481C18.1751 3.36309 18.0469 3.33536 17.917 3.33319Z" fill="white"/>
<path d="M4.44434 7.77753H5.55545V8.88864H4.44434V7.77753Z" fill="white"/>
<path d="M7.77734 7.77753H8.88845V8.88864H7.77734V7.77753Z" fill="white"/>
<path d="M11.1113 7.77753H12.2224V8.88864H11.1113V7.77753Z" fill="white"/>
<path d="M14.4443 7.77753H15.5554V8.88864H14.4443V7.77753Z" fill="white"/>
<path d="M4.44434 10.5556H5.55545V11.6667H4.44434V10.5556Z" fill="white"/>
<path d="M7.77734 10.5556H8.88845V11.6667H7.77734V10.5556Z" fill="white"/>
<path d="M11.1113 10.5556H12.2224V11.6667H11.1113V10.5556Z" fill="white"/>
<path d="M14.4443 10.5556H15.5554V11.6667H14.4443V10.5556Z" fill="white"/>
<path d="M4.44434 13.3332H5.55545V14.4443H4.44434V13.3332Z" fill="white"/>
<path d="M7.77734 13.3332H8.88845V14.4443H7.77734V13.3332Z" fill="white"/>
<path d="M11.1113 13.3332H12.2224V14.4443H11.1113V13.3332Z" fill="white"/>
<path d="M14.4443 13.3332H15.5554V14.4443H14.4443V13.3332Z" fill="white"/>
<path d="M5.55556 5.55565C5.7029 5.55565 5.84421 5.49712 5.94839 5.39293C6.05258 5.28875 6.11111 5.14744 6.11111 5.0001V1.66676C6.11111 1.51942 6.05258 1.37811 5.94839 1.27392C5.84421 1.16974 5.7029 1.11121 5.55556 1.11121C5.40821 1.11121 5.26691 1.16974 5.16272 1.27392C5.05853 1.37811 5 1.51942 5 1.66676V5.0001C5 5.14744 5.05853 5.28875 5.16272 5.39293C5.26691 5.49712 5.40821 5.55565 5.55556 5.55565Z" fill="white"/>
<path d="M14.4442 5.55565C14.5916 5.55565 14.7329 5.49712 14.8371 5.39293C14.9413 5.28875 14.9998 5.14744 14.9998 5.0001V1.66676C14.9998 1.51942 14.9413 1.37811 14.8371 1.27392C14.7329 1.16974 14.5916 1.11121 14.4442 1.11121C14.2969 1.11121 14.1556 1.16974 14.0514 1.27392C13.9472 1.37811 13.8887 1.51942 13.8887 1.66676V5.0001C13.8887 5.14744 13.9472 5.28875 14.0514 5.39293C14.1556 5.49712 14.2969 5.55565 14.4442 5.55565Z" fill="white"/>
<path d="M7.22266 3.33319H12.7782V4.4443H7.22266V3.33319Z" fill="white"/>
</g>
<defs>
<clipPath id="clip0_826_2427">
<rect width="20" height="20" fill="white"/>
</clipPath>
</defs>
</svg>
