<svg width="22" height="22" viewBox="0 0 22 22" fill="none" xmlns="http://www.w3.org/2000/svg">
<path d="M12.4566 1.54754C12.6478 1.72385 12.7992 1.93303 12.902 2.16308C13.0049 2.39313 13.0571 2.63952 13.0558 2.88812V8.71316L20.0358 11.4603C20.1122 11.488 20.1808 11.5311 20.2367 11.5862C20.2926 11.6414 20.3344 11.7073 20.359 11.7792L20.9712 13.4495C21.0037 13.5421 21.0088 13.641 20.9859 13.736C20.9631 13.831 20.9131 13.9187 20.8411 13.9902C20.7691 14.0616 20.6777 14.1143 20.5762 14.1428C20.4747 14.1713 20.3668 14.1745 20.2634 14.1522L13.0676 12.4938L12.7208 18.1642L14.0998 19.1102V21C13.0634 20.7487 12.028 20.4935 10.9938 20.2346C10.9938 20.2346 9.72806 20.5535 7.89961 21V19.1102L9.27979 18.1642L8.93062 12.4938L1.73598 14.1533C1.63272 14.1752 1.52496 14.1717 1.42366 14.1431C1.32236 14.1145 1.23113 14.0619 1.15923 13.9905C1.08734 13.9191 1.03734 13.8315 1.01433 13.7367C0.99131 13.6419 0.996094 13.5432 1.02819 13.4506L1.64043 11.7792C1.66501 11.7073 1.70679 11.6414 1.7627 11.5862C1.81862 11.5311 1.88727 11.488 1.96365 11.4603L8.94359 8.71316V2.88812C8.94243 2.63954 8.99475 2.39318 9.09758 2.16315C9.20041 1.93311 9.35172 1.72392 9.54285 1.54754C9.93111 1.19669 10.4545 1 10.9997 1C11.545 1 12.0683 1.19669 12.4566 1.54754Z" stroke="white" stroke-width="1.3" stroke-linecap="round" stroke-linejoin="round"/>
</svg>
