<svg width="31" height="14" viewBox="0 0 31 14" fill="none" xmlns="http://www.w3.org/2000/svg">
<path d="M7.06994 1.31654C7.17126 1.41846 7.25146 1.53939 7.30595 1.67239C7.36043 1.80538 7.38813 1.94782 7.38744 2.09154V5.45904L11.0856 7.04716C11.126 7.06321 11.1624 7.0881 11.192 7.11999C11.2217 7.15189 11.2438 7.19 11.2568 7.23154L11.5812 8.19716C11.5984 8.2507 11.6011 8.30785 11.589 8.36276C11.5769 8.41768 11.5504 8.46839 11.5122 8.50971C11.4741 8.55103 11.4257 8.58148 11.3719 8.59795C11.3181 8.61441 11.2609 8.6163 11.2062 8.60341L7.39369 7.64466L7.20994 10.9228L7.94056 11.4697V12.5622C7.39143 12.4169 6.84288 12.2694 6.29494 12.1197C6.29494 12.1197 5.62431 12.304 4.65556 12.5622V11.4697L5.38681 10.9228L5.20181 7.64466L1.38994 8.60404C1.33523 8.61671 1.27814 8.61468 1.22447 8.59815C1.17079 8.58162 1.12246 8.55117 1.08437 8.5099C1.04627 8.46864 1.01978 8.41802 1.00759 8.3632C0.995396 8.30838 0.997931 8.25131 1.01494 8.19779L1.33931 7.23154C1.35234 7.19 1.37447 7.15189 1.4041 7.11999C1.43372 7.0881 1.4701 7.06321 1.51056 7.04716L5.20869 5.45904V2.09154C5.20807 1.94783 5.23579 1.80541 5.29027 1.67242C5.34475 1.53944 5.42492 1.41851 5.52619 1.31654C5.7319 1.11371 6.00918 1 6.29806 1C6.58695 1 6.86423 1.11371 7.06994 1.31654Z" stroke="#494949" stroke-linecap="round" stroke-linejoin="round"/>
<path d="M16.5337 10.6875V7.875L16.9562 7.76C20.9761 6.6636 25.2163 6.6636 29.2362 7.76L29.6587 7.875V10.6875M16.5337 10.6875C16.5337 10.6875 16.5337 12.5625 15.5962 12.5625M16.5337 10.6875H29.6587M29.6587 10.6875C29.6587 10.6875 29.6587 12.5625 30.5962 12.5625M17.7837 6C17.7837 4.75688 17.5981 3.52125 17.2324 2.33312L17.1587 2.09375V1.9375H29.0337V2.09375L28.9599 2.33312C28.5945 3.52111 28.4086 4.75706 28.4087 6M23.0962 3.8125H19.6587V6M23.0962 3.8125V6M23.0962 3.8125H26.5337V6" stroke="#494949"/>
</svg>
