<svg width="20" height="21" viewBox="0 0 20 21" fill="none" xmlns="http://www.w3.org/2000/svg">
<path d="M14.1733 8.72205L17.0042 5.89205C17.3176 5.57346 17.4924 5.14392 17.4906 4.697C17.4888 4.25009 17.3104 3.822 16.9944 3.50598C16.6784 3.18996 16.2503 3.01161 15.8034 3.00978C15.3565 3.00795 14.9269 3.18279 14.6083 3.49622L11.7783 6.32705L4.1575 4.79538C3.1825 4.59872 1.82417 6.49038 3.11583 6.99372L8.86917 9.23622L5.95833 12.1462C4.2575 12.0037 3.69167 11.9737 2.5 13.1662L5.52167 14.9787L7.33417 18.0004C8.52667 16.8087 8.49583 16.2429 8.35417 14.5421L11.265 11.6312" stroke="#494949" stroke-linecap="round" stroke-linejoin="round"/>
<path d="M18.1329 15.0144H17.8085L17.6936 14.9036C17.9501 14.6056 18.1377 14.2547 18.2427 13.8759C18.3478 13.4971 18.3677 13.0998 18.3012 12.7123C18.1082 11.5716 17.1557 10.6606 16.0061 10.5211C15.6019 10.47 15.1914 10.512 14.8059 10.6438C14.4205 10.7757 14.0703 10.9939 13.7823 11.2818C13.4942 11.5697 13.2758 11.9197 13.1439 12.3049C13.012 12.6901 12.97 13.1004 13.0211 13.5043C13.1607 14.6533 14.0722 15.6052 15.2136 15.7981C15.6013 15.8646 15.9989 15.8446 16.3779 15.7397C16.7569 15.6347 17.108 15.4472 17.4061 15.1908L17.517 15.3057V15.6299L19.262 17.3738C19.4303 17.5421 19.7054 17.5421 19.8737 17.3738C20.0421 17.2056 20.0421 16.9307 19.8737 16.7624L18.1329 15.0144ZM15.6694 15.0144C14.647 15.0144 13.8218 14.1896 13.8218 13.1678C13.8218 12.1461 14.647 11.3213 15.6694 11.3213C16.6917 11.3213 17.517 12.1461 17.517 13.1678C17.517 14.1896 16.6917 15.0144 15.6694 15.0144Z" fill="#494949"/>
</svg>
