<svg width="20" height="20" viewBox="0 0 20 20" fill="none" xmlns="http://www.w3.org/2000/svg">
<path d="M11.0293 2.71404C11.1644 2.84995 11.2713 3.01118 11.344 3.18851C11.4166 3.36583 11.4535 3.55575 11.4526 3.74738V8.23738L16.3835 10.3549C16.4374 10.3763 16.4859 10.4095 16.5254 10.452C16.5649 10.4945 16.5944 10.5453 16.6118 10.6007L17.0443 11.8882C17.0672 11.9596 17.0708 12.0358 17.0547 12.109C17.0385 12.1822 17.0032 12.2498 16.9523 12.3049C16.9015 12.36 16.8369 12.4006 16.7652 12.4226C16.6935 12.4445 16.6173 12.4471 16.5443 12.4299L11.461 11.1515L11.216 15.5224L12.1901 16.2515V17.7082C11.4579 17.5145 10.7265 17.3178 9.99595 17.1182C9.99595 17.1182 9.10178 17.364 7.81012 17.7082V16.2515L8.78512 15.5224L8.53845 11.1515L3.45595 12.4307C3.383 12.4476 3.30688 12.4449 3.23532 12.4229C3.16376 12.4008 3.09931 12.3602 3.04852 12.3052C2.99773 12.2502 2.96241 12.1827 2.94616 12.1096C2.9299 12.0365 2.93328 11.9604 2.95595 11.889L3.38845 10.6007C3.40582 10.5453 3.43533 10.4945 3.47483 10.452C3.51433 10.4095 3.56283 10.3763 3.61678 10.3549L8.54762 8.23738V3.74738C8.54679 3.55576 8.58376 3.36587 8.6564 3.18856C8.72904 3.01125 8.83593 2.85 8.97095 2.71404C9.24523 2.4436 9.61494 2.29199 10.0001 2.29199C10.3853 2.29199 10.755 2.4436 11.0293 2.71404Z" stroke="#494949" stroke-linecap="round" stroke-linejoin="round"/>
</svg>
