<svg width="18" height="18" viewBox="0 0 18 18" fill="none" xmlns="http://www.w3.org/2000/svg">
<path d="M16.0875 8.42026H15.045C14.9087 7.00243 14.2834 5.6762 13.2762 4.66902C12.2691 3.66185 10.9428 3.03651 9.525 2.90026V1.85776C9.525 1.70857 9.46574 1.5655 9.36025 1.46001C9.25476 1.35452 9.11168 1.29526 8.9625 1.29526C8.81332 1.29526 8.67024 1.35452 8.56475 1.46001C8.45926 1.5655 8.4 1.70857 8.4 1.85776V2.90026C6.98838 3.04332 5.67016 3.67183 4.6703 4.67853C3.67045 5.68522 3.05094 7.0077 2.9175 8.42026H1.875C1.80113 8.42026 1.72799 8.43481 1.65974 8.46307C1.59149 8.49134 1.52949 8.53278 1.47725 8.58501C1.42502 8.63724 1.38359 8.69925 1.35532 8.7675C1.32705 8.83574 1.3125 8.90889 1.3125 8.98276C1.3125 9.05663 1.32705 9.12977 1.35532 9.19802C1.38359 9.26626 1.42502 9.32827 1.47725 9.3805C1.52949 9.43274 1.59149 9.47417 1.65974 9.50244C1.72799 9.53071 1.80113 9.54526 1.875 9.54526H2.9175C3.05375 10.9631 3.67909 12.2893 4.68627 13.2965C5.69344 14.3037 7.01967 14.929 8.4375 15.0653V16.1078C8.4375 16.2569 8.49676 16.4 8.60225 16.5055C8.70774 16.611 8.85082 16.6703 9 16.6703C9.14918 16.6703 9.29226 16.611 9.39775 16.5055C9.50324 16.4 9.5625 16.2569 9.5625 16.1078V15.0653C10.9798 14.9276 12.3053 14.3018 13.3122 13.2949C14.3191 12.288 14.9449 10.9626 15.0825 9.54526H16.125C16.1989 9.54526 16.272 9.53071 16.3403 9.50244C16.4085 9.47417 16.4705 9.43274 16.5227 9.3805C16.575 9.32827 16.6164 9.26626 16.6447 9.19802C16.6729 9.12977 16.6875 9.05663 16.6875 8.98276C16.6875 8.90889 16.6729 8.83574 16.6447 8.7675C16.6164 8.69925 16.575 8.63724 16.5227 8.58501C16.4705 8.53278 16.4085 8.49134 16.3403 8.46307C16.272 8.43481 16.1989 8.42026 16.125 8.42026H16.0875ZM8.9625 13.9628C7.97755 13.9628 7.01472 13.6707 6.19576 13.1235C5.3768 12.5763 4.7385 11.7985 4.36158 10.8885C3.98466 9.97854 3.88603 8.97723 4.07819 8.01121C4.27034 7.04518 4.74464 6.15783 5.44111 5.46137C6.13757 4.7649 7.02492 4.2906 7.99095 4.09845C8.95698 3.90629 9.95829 4.00491 10.8683 4.38184C11.7782 4.75876 12.556 5.39706 13.1032 6.21602C13.6504 7.03497 13.9425 7.99781 13.9425 8.98276C13.9425 10.3042 13.4181 11.5717 12.4843 12.5068C11.5506 13.4419 10.284 13.9683 8.9625 13.9703V13.9628Z" fill="#99A0A8"/>
<path d="M12.3598 8.99024C12.3598 9.66401 12.1599 10.3226 11.7854 10.8827C11.411 11.4428 10.8787 11.8793 10.2561 12.1368C9.63348 12.3943 8.94847 12.4613 8.28776 12.3293C7.62705 12.1973 7.02035 11.8722 6.54445 11.3953C6.06856 10.9183 5.74485 10.3109 5.61432 9.64992C5.48379 8.98892 5.55229 8.30405 5.81115 7.682C6.07002 7.05995 6.50762 6.52868 7.06855 6.15544C7.62949 5.7822 8.28854 5.58376 8.96231 5.58524C9.4091 5.58524 9.85151 5.67337 10.2642 5.84458C10.6769 6.01579 11.0518 6.26672 11.3674 6.583C11.6829 6.89928 11.933 7.2747 12.1033 7.68777C12.2736 8.10084 12.3608 8.54345 12.3598 8.99024Z" fill="#99A0A8"/>
</svg>
