<svg width="147" height="42" viewBox="0 0 147 42" fill="none" xmlns="http://www.w3.org/2000/svg">
<rect width="146.845" height="41.2759" rx="3.42529" fill="#242424"/>
<path d="M61.9536 11.5148V13.2977C61.8934 13.3869 61.7975 13.4873 61.6659 13.5988C61.5344 13.708 61.3526 13.8039 61.1207 13.8864C60.891 13.9667 60.5944 14.0068 60.2309 14.0068C59.9343 14.0068 59.6612 13.9556 59.4114 13.853C59.1639 13.7482 58.9487 13.5965 58.7658 13.3981C58.5852 13.1973 58.4447 12.9543 58.3443 12.6688C58.2462 12.3812 58.1972 12.0556 58.1972 11.6921V11.3141C58.1972 10.9506 58.2395 10.6262 58.3243 10.3407C58.4112 10.0553 58.5383 9.81332 58.7056 9.61485C58.8728 9.41415 59.078 9.26251 59.3211 9.15993C59.5641 9.05512 59.8429 9.00271 60.1573 9.00271C60.5297 9.00271 60.8408 9.06738 61.0906 9.19672C61.3426 9.32383 61.5388 9.5 61.6793 9.72523C61.822 9.95046 61.9135 10.2069 61.9536 10.4946H61.308C61.279 10.3184 61.221 10.1579 61.1341 10.0129C61.0493 9.86795 60.9278 9.75199 60.7695 9.66502C60.6111 9.57582 60.4071 9.53122 60.1573 9.53122C59.9321 9.53122 59.737 9.57248 59.572 9.65499C59.4069 9.7375 59.2709 9.85569 59.1639 10.0096C59.0568 10.1634 58.9765 10.3496 58.923 10.5682C58.8717 10.7867 58.8461 11.0331 58.8461 11.3074V11.6921C58.8461 11.9731 58.8784 12.224 58.9431 12.4447C59.01 12.6655 59.1048 12.8539 59.2274 13.01C59.3501 13.1639 59.4961 13.281 59.6656 13.3613C59.8373 13.4415 60.0269 13.4817 60.2343 13.4817C60.464 13.4817 60.6502 13.4627 60.7929 13.4248C60.9356 13.3847 61.0471 13.3378 61.1274 13.2843C61.2077 13.2286 61.269 13.1762 61.3114 13.1271V12.0366H60.1841V11.5148H61.9536ZM66.1181 13.4148V13.9399H63.5391V13.4148H66.1181ZM63.6696 9.06961V13.9399H63.024V9.06961H63.6696ZM65.7769 11.1636V11.6888H63.5391V11.1636H65.7769ZM66.0847 9.06961V9.59812H63.5391V9.06961H66.0847ZM68.7841 9.06961V13.9399H68.1485V9.06961H68.7841ZM70.3496 9.06961V9.59812H66.5864V9.06961H70.3496ZM73.33 9.06961V13.9399H72.6844V9.06961H73.33ZM76.2033 9.06961V13.9399H75.5678V9.06961H76.2033ZM77.7688 9.06961V9.59812H74.0057V9.06961H77.7688ZM83.8065 11.3509V11.6586C83.8065 12.0244 83.7608 12.3522 83.6694 12.6421C83.578 12.932 83.4464 13.1784 83.2747 13.3813C83.103 13.5843 82.8967 13.7392 82.6558 13.8463C82.4172 13.9533 82.1496 14.0068 81.853 14.0068C81.5654 14.0068 81.3011 13.9533 81.0603 13.8463C80.8217 13.7392 80.6143 13.5843 80.4381 13.3813C80.2642 13.1784 80.1292 12.932 80.0334 12.6421C79.9375 12.3522 79.8895 12.0244 79.8895 11.6586V11.3509C79.8895 10.9852 79.9364 10.6585 80.03 10.3708C80.1259 10.0809 80.2608 9.8345 80.4348 9.63157C80.6087 9.42641 80.815 9.27031 81.0536 9.16327C81.2944 9.05623 81.5587 9.00271 81.8464 9.00271C82.1429 9.00271 82.4105 9.05623 82.6492 9.16327C82.89 9.27031 83.0963 9.42641 83.268 9.63157C83.4419 9.8345 83.5746 10.0809 83.666 10.3708C83.7597 10.6585 83.8065 10.9852 83.8065 11.3509ZM83.1676 11.6586V11.3442C83.1676 11.0543 83.1375 10.7979 83.0773 10.5749C83.0193 10.3519 82.9335 10.1645 82.8198 10.0129C82.706 9.86126 82.5666 9.74642 82.4016 9.66837C82.2388 9.59032 82.0537 9.55129 81.8464 9.55129C81.6457 9.55129 81.4639 9.59032 81.3011 9.66837C81.1406 9.74642 81.0023 9.86126 80.8863 10.0129C80.7726 10.1645 80.6845 10.3519 80.6221 10.5749C80.5596 10.7979 80.5284 11.0543 80.5284 11.3442V11.6586C80.5284 11.9508 80.5596 12.2095 80.6221 12.4347C80.6845 12.6577 80.7737 12.8461 80.8897 13C81.0079 13.1516 81.1472 13.2665 81.3078 13.3445C81.4706 13.4226 81.6523 13.4616 81.853 13.4616C82.0627 13.4616 82.2489 13.4226 82.4117 13.3445C82.5744 13.2665 82.7116 13.1516 82.8231 13C82.9368 12.8461 83.0227 12.6577 83.0807 12.4347C83.1386 12.2095 83.1676 11.9508 83.1676 11.6586ZM88.5196 9.06961V13.9399H87.8707L85.4188 10.1835V13.9399H84.7732V9.06961H85.4188L87.8807 12.8361V9.06961H88.5196Z" fill="white"/>
<path d="M66.379 24.5559V28.416C66.2274 28.5989 65.9932 28.7973 65.6766 29.0114C65.3599 29.221 64.9518 29.4017 64.4523 29.5533C63.9528 29.705 63.3485 29.7808 62.6393 29.7808C62.0105 29.7808 61.4374 29.6782 60.92 29.473C60.4026 29.2634 59.9566 28.9579 59.582 28.5565C59.2118 28.1551 58.9264 27.6645 58.7257 27.0847C58.525 26.5004 58.4246 25.8337 58.4246 25.0844V24.4756C58.4246 23.7263 58.5205 23.0595 58.7123 22.4753C58.9085 21.891 59.1873 21.3982 59.5485 20.9968C59.9098 20.5954 60.3402 20.2899 60.8397 20.0803C61.3392 19.8706 61.8945 19.7658 62.5055 19.7658C63.3529 19.7658 64.0487 19.9041 64.5928 20.1806C65.1369 20.4527 65.5517 20.8318 65.8371 21.3179C66.1271 21.7996 66.3055 22.3526 66.3724 22.977H64.4256C64.3765 22.647 64.2828 22.3593 64.1446 22.114C64.0063 21.8687 63.8078 21.6769 63.5492 21.5387C63.2949 21.4004 62.9649 21.3313 62.559 21.3313C62.2245 21.3313 61.9257 21.4004 61.6626 21.5387C61.4039 21.6725 61.1854 21.8709 61.007 22.1341C60.8286 22.3972 60.6925 22.7228 60.5989 23.1108C60.5052 23.4988 60.4584 23.9493 60.4584 24.4622V25.0844C60.4584 25.5928 60.5074 26.0433 60.6056 26.4358C60.7037 26.8238 60.8486 27.1516 61.0404 27.4192C61.2366 27.6823 61.4775 27.8808 61.7629 28.0146C62.0484 28.1484 62.3806 28.2153 62.7597 28.2153C63.0764 28.2153 63.3395 28.1885 63.5492 28.135C63.7632 28.0815 63.935 28.0168 64.0643 27.941C64.1981 27.8607 64.3007 27.7849 64.372 27.7136V25.9875H62.539V24.5559H66.379ZM67.5699 26.1013V25.9608C67.5699 25.43 67.6457 24.9417 67.7973 24.4957C67.949 24.0452 68.1697 23.6549 68.4596 23.3249C68.7495 22.9949 69.1063 22.7384 69.53 22.5556C69.9537 22.3682 70.4399 22.2746 70.9885 22.2746C71.537 22.2746 72.0254 22.3682 72.4536 22.5556C72.8817 22.7384 73.2408 22.9949 73.5307 23.3249C73.825 23.6549 74.048 24.0452 74.1997 24.4957C74.3513 24.9417 74.4271 25.43 74.4271 25.9608V26.1013C74.4271 26.6275 74.3513 27.1159 74.1997 27.5664C74.048 28.0124 73.825 28.4026 73.5307 28.7371C73.2408 29.0672 72.884 29.3236 72.4603 29.5065C72.0366 29.6893 71.5504 29.7808 71.0018 29.7808C70.4533 29.7808 69.9649 29.6893 69.5367 29.5065C69.113 29.3236 68.754 29.0672 68.4596 28.7371C68.1697 28.4026 67.949 28.0124 67.7973 27.5664C67.6457 27.1159 67.5699 26.6275 67.5699 26.1013ZM69.4966 25.9608V26.1013C69.4966 26.4045 69.5233 26.6878 69.5769 26.9509C69.6304 27.214 69.7151 27.446 69.8311 27.6467C69.9515 27.8429 70.1076 27.9968 70.2994 28.1083C70.4912 28.2198 70.7253 28.2755 71.0018 28.2755C71.2694 28.2755 71.4991 28.2198 71.6909 28.1083C71.8827 27.9968 72.0366 27.8429 72.1525 27.6467C72.2685 27.446 72.3532 27.214 72.4067 26.9509C72.4647 26.6878 72.4937 26.4045 72.4937 26.1013V25.9608C72.4937 25.6664 72.4647 25.3899 72.4067 25.1312C72.3532 24.8681 72.2663 24.6362 72.1458 24.4355C72.0299 24.2303 71.876 24.0697 71.6842 23.9538C71.4924 23.8378 71.2605 23.7798 70.9885 23.7798C70.7164 23.7798 70.4845 23.8378 70.2927 23.9538C70.1054 24.0697 69.9515 24.2303 69.8311 24.4355C69.7151 24.6362 69.6304 24.8681 69.5769 25.1312C69.5233 25.3899 69.4966 25.6664 69.4966 25.9608ZM75.3035 26.1013V25.9608C75.3035 25.43 75.3793 24.9417 75.531 24.4957C75.6826 24.0452 75.9034 23.6549 76.1933 23.3249C76.4832 22.9949 76.84 22.7384 77.2637 22.5556C77.6874 22.3682 78.1735 22.2746 78.7221 22.2746C79.2707 22.2746 79.7591 22.3682 80.1872 22.5556C80.6154 22.7384 80.9744 22.9949 81.2643 23.3249C81.5587 23.6549 81.7817 24.0452 81.9333 24.4957C82.085 24.9417 82.1608 25.43 82.1608 25.9608V26.1013C82.1608 26.6275 82.085 27.1159 81.9333 27.5664C81.7817 28.0124 81.5587 28.4026 81.2643 28.7371C80.9744 29.0672 80.6176 29.3236 80.1939 29.5065C79.7702 29.6893 79.2841 29.7808 78.7355 29.7808C78.1869 29.7808 77.6985 29.6893 77.2704 29.5065C76.8467 29.3236 76.4877 29.0672 76.1933 28.7371C75.9034 28.4026 75.6826 28.0124 75.531 27.5664C75.3793 27.1159 75.3035 26.6275 75.3035 26.1013ZM77.2302 25.9608V26.1013C77.2302 26.4045 77.257 26.6878 77.3105 26.9509C77.364 27.214 77.4488 27.446 77.5647 27.6467C77.6852 27.8429 77.8413 27.9968 78.033 28.1083C78.2248 28.2198 78.459 28.2755 78.7355 28.2755C79.0031 28.2755 79.2328 28.2198 79.4246 28.1083C79.6163 27.9968 79.7702 27.8429 79.8862 27.6467C80.0021 27.446 80.0869 27.214 80.1404 26.9509C80.1984 26.6878 80.2274 26.4045 80.2274 26.1013V25.9608C80.2274 25.6664 80.1984 25.3899 80.1404 25.1312C80.0869 24.8681 79.9999 24.6362 79.8795 24.4355C79.7635 24.2303 79.6097 24.0697 79.4179 23.9538C79.2261 23.8378 78.9942 23.7798 78.7221 23.7798C78.4501 23.7798 78.2181 23.8378 78.0264 23.9538C77.839 24.0697 77.6852 24.2303 77.5647 24.4355C77.4488 24.6362 77.364 24.8681 77.3105 25.1312C77.257 25.3899 77.2302 25.6664 77.2302 25.9608ZM87.9276 22.4084H89.6737V29.4061C89.6737 30.0662 89.5265 30.6259 89.2321 31.0853C88.9422 31.5492 88.5364 31.8993 88.0145 32.1357C87.4927 32.3765 86.8862 32.4969 86.1949 32.4969C85.8916 32.4969 85.5705 32.4568 85.2315 32.3765C84.897 32.2962 84.5759 32.1713 84.2681 32.0019C83.9649 31.8324 83.7106 31.6183 83.5055 31.3596L84.3551 30.2223C84.5781 30.481 84.8368 30.6817 85.1311 30.8244C85.4255 30.9716 85.7511 31.0452 86.1079 31.0452C86.4558 31.0452 86.7501 30.9805 86.991 30.8512C87.2318 30.7263 87.4169 30.5412 87.5462 30.2959C87.6756 30.0551 87.7403 29.7629 87.7403 29.4195V24.0809L87.9276 22.4084ZM83.0572 26.1146V25.9742C83.0572 25.4211 83.1241 24.9194 83.2579 24.4689C83.3962 24.014 83.5902 23.6237 83.84 23.2981C84.0942 22.9726 84.4019 22.7206 84.7632 22.5422C85.1245 22.3638 85.5326 22.2746 85.9875 22.2746C86.4692 22.2746 86.8728 22.3638 87.1984 22.5422C87.5239 22.7206 87.7915 22.9748 88.0012 23.3048C88.2108 23.6304 88.3736 24.0162 88.4895 24.4622C88.61 24.9038 88.7036 25.3877 88.7705 25.9139V26.2217C88.7036 26.7257 88.6033 27.194 88.4695 27.6266C88.3357 28.0592 88.1595 28.4383 87.941 28.7639C87.7224 29.085 87.4504 29.3348 87.1248 29.5132C86.8037 29.6916 86.4201 29.7808 85.9741 29.7808C85.5281 29.7808 85.1245 29.6893 84.7632 29.5065C84.4064 29.3236 84.1009 29.0672 83.8467 28.7371C83.5924 28.4071 83.3962 28.0191 83.2579 27.5731C83.1241 27.1271 83.0572 26.6409 83.0572 26.1146ZM84.984 25.9742V26.1146C84.984 26.4135 85.013 26.6922 85.0709 26.9509C85.1289 27.2096 85.2181 27.4393 85.3385 27.64C85.4634 27.8362 85.6173 27.9901 85.8002 28.1016C85.9875 28.2086 86.2082 28.2621 86.4625 28.2621C86.8148 28.2621 87.1025 28.1885 87.3255 28.0414C87.5485 27.8897 87.7157 27.6823 87.8272 27.4192C87.9387 27.1561 88.0034 26.8528 88.0212 26.5094V25.633C88.0123 25.352 87.9744 25.1 87.9075 24.877C87.8406 24.6495 87.7469 24.4555 87.6265 24.295C87.5061 24.1344 87.35 24.0095 87.1582 23.9203C86.9664 23.8311 86.739 23.7865 86.4758 23.7865C86.2216 23.7865 86.0009 23.8445 85.8135 23.9605C85.6307 24.072 85.4768 24.2258 85.3519 24.4221C85.2315 24.6183 85.1401 24.8502 85.0776 25.1178C85.0152 25.381 84.984 25.6664 84.984 25.9742ZM93.206 19.3711V29.647H91.2726V19.3711H93.206ZM98.1298 29.7808C97.5679 29.7808 97.0639 29.6916 96.6179 29.5132C96.1719 29.3303 95.7928 29.0783 95.4806 28.7572C95.1729 28.4361 94.9365 28.0637 94.7715 27.64C94.6064 27.2118 94.5239 26.7569 94.5239 26.2752V26.0076C94.5239 25.459 94.602 24.9573 94.7581 24.5024C94.9142 24.0474 95.1372 23.6527 95.4271 23.3182C95.7214 22.9837 96.0782 22.7273 96.4975 22.5489C96.9167 22.366 97.3895 22.2746 97.9158 22.2746C98.4287 22.2746 98.8836 22.3593 99.2805 22.5288C99.6775 22.6983 100.01 22.9391 100.277 23.2513C100.549 23.5635 100.755 23.9382 100.893 24.3752C101.031 24.8079 101.1 25.2895 101.1 25.8203V26.6231H95.3468V25.3386H99.2069V25.1914C99.2069 24.9238 99.1579 24.6852 99.0598 24.4756C98.9661 24.2615 98.8234 24.092 98.6316 23.9672C98.4398 23.8423 98.1945 23.7798 97.8957 23.7798C97.6415 23.7798 97.4229 23.8356 97.2401 23.9471C97.0572 24.0586 96.9078 24.2147 96.7918 24.4154C96.6803 24.6161 96.5956 24.8525 96.5376 25.1245C96.4841 25.3921 96.4573 25.6865 96.4573 26.0076V26.2752C96.4573 26.5651 96.4975 26.8327 96.5778 27.078C96.6625 27.3233 96.7807 27.5352 96.9323 27.7136C97.0884 27.892 97.2758 28.0302 97.4943 28.1283C97.7173 28.2265 97.9693 28.2755 98.2503 28.2755C98.5981 28.2755 98.9215 28.2086 99.2203 28.0748C99.5236 27.9366 99.7845 27.7292 100.003 27.4526L100.94 28.4695C100.788 28.6881 100.581 28.8977 100.317 29.0984C100.059 29.2991 99.7466 29.4641 99.3809 29.5935C99.0152 29.7183 98.5981 29.7808 98.1298 29.7808ZM109.523 26.1749H107.041V24.6094H109.523C109.907 24.6094 110.219 24.547 110.46 24.4221C110.7 24.2927 110.877 24.1143 110.988 23.8869C111.1 23.6594 111.155 23.403 111.155 23.1175C111.155 22.8276 111.1 22.5578 110.988 22.308C110.877 22.0583 110.7 21.8576 110.46 21.7059C110.219 21.5543 109.907 21.4785 109.523 21.4785H107.737V29.647H105.73V19.9063H109.523C110.286 19.9063 110.939 20.0446 111.483 20.3211C112.032 20.5932 112.451 20.97 112.741 21.4517C113.031 21.9334 113.176 22.4842 113.176 23.1041C113.176 23.733 113.031 24.2771 112.741 24.7365C112.451 25.1959 112.032 25.5505 111.483 25.8002C110.939 26.05 110.286 26.1749 109.523 26.1749ZM116.474 19.3711V29.647H114.54V19.3711H116.474ZM121.973 28.0146V24.79C121.973 24.5581 121.935 24.3596 121.859 24.1946C121.784 24.0251 121.665 23.8936 121.505 23.7999C121.349 23.7062 121.146 23.6594 120.896 23.6594C120.682 23.6594 120.497 23.6973 120.341 23.7731C120.185 23.8445 120.064 23.9493 119.979 24.0876C119.895 24.2214 119.852 24.3797 119.852 24.5626H117.926C117.926 24.2548 117.997 23.9627 118.14 23.6862C118.282 23.4096 118.49 23.1666 118.762 22.957C119.034 22.7429 119.357 22.5756 119.732 22.4552C120.111 22.3348 120.535 22.2746 121.003 22.2746C121.565 22.2746 122.064 22.3682 122.502 22.5556C122.939 22.7429 123.282 23.0239 123.532 23.3985C123.786 23.7731 123.913 24.2414 123.913 24.8034V27.9009C123.913 28.2978 123.938 28.6234 123.987 28.8776C124.036 29.1274 124.107 29.3459 124.201 29.5332V29.647H122.254C122.16 29.4507 122.089 29.2054 122.04 28.9111C121.995 28.6123 121.973 28.3134 121.973 28.0146ZM122.227 25.2383L122.241 26.3287H121.164C120.909 26.3287 120.689 26.3577 120.501 26.4157C120.314 26.4737 120.16 26.5562 120.04 26.6632C119.919 26.7658 119.83 26.8862 119.772 27.0245C119.719 27.1627 119.692 27.3144 119.692 27.4794C119.692 27.6444 119.73 27.7938 119.805 27.9276C119.881 28.057 119.991 28.1596 120.133 28.2354C120.276 28.3067 120.443 28.3424 120.635 28.3424C120.925 28.3424 121.177 28.2844 121.391 28.1685C121.605 28.0525 121.77 27.9098 121.886 27.7403C122.007 27.5708 122.069 27.4103 122.073 27.2586L122.582 28.0748C122.51 28.2577 122.412 28.4472 122.287 28.6435C122.167 28.8397 122.013 29.0248 121.826 29.1987C121.639 29.3682 121.413 29.5087 121.15 29.6202C120.887 29.7273 120.575 29.7808 120.214 29.7808C119.754 29.7808 119.337 29.6893 118.963 29.5065C118.592 29.3192 118.298 29.0627 118.079 28.7371C117.865 28.4071 117.758 28.0324 117.758 27.6132C117.758 27.2341 117.83 26.8974 117.972 26.603C118.115 26.3087 118.325 26.0611 118.601 25.8604C118.882 25.6553 119.232 25.5014 119.652 25.3988C120.071 25.2918 120.557 25.2383 121.11 25.2383H122.227ZM127.439 28.8308L129.359 22.4084H131.426L128.516 30.7374C128.453 30.9203 128.369 31.1165 128.262 31.3262C128.159 31.5358 128.019 31.7343 127.84 31.9216C127.666 32.1134 127.445 32.2695 127.178 32.3899C126.915 32.5103 126.591 32.5705 126.208 32.5705C126.025 32.5705 125.876 32.5594 125.76 32.5371C125.644 32.5148 125.505 32.4835 125.345 32.4434V31.0318C125.394 31.0318 125.445 31.0318 125.499 31.0318C125.552 31.0363 125.604 31.0385 125.653 31.0385C125.907 31.0385 126.114 31.0095 126.275 30.9515C126.435 30.8935 126.565 30.8043 126.663 30.6839C126.761 30.568 126.839 30.4163 126.897 30.229L127.439 28.8308ZM126.636 22.4084L128.208 27.6533L128.482 29.6938L127.171 29.8343L124.569 22.4084H126.636Z" fill="white"/>
<g clip-path="url(#clip0_984_1974)">
<path d="M27.7901 19.917L12.9785 33.5159C13.1448 34.0325 13.4438 34.5089 13.8524 34.9087C14.261 35.3085 14.7685 35.6211 15.3362 35.8227C15.9038 36.0243 16.5166 36.1095 17.1275 36.0717C17.7385 36.034 18.3315 35.8743 18.8613 35.605L35.5271 27.2871L27.7901 19.917Z" fill="#EA4335"/>
<path d="M42.7664 17.6053L35.5595 13.9878L27.4473 20.2261L35.5925 27.2674L42.7445 23.6887C43.3781 23.398 43.9088 22.9608 44.2791 22.4246C44.6494 21.8884 44.8451 21.2737 44.8451 20.6469C44.8451 20.0202 44.6494 19.4054 44.2791 18.8692C43.9088 18.333 43.3781 17.8959 42.7445 17.6052L42.7664 17.6053Z" fill="#FBBC04"/>
<path d="M12.9782 7.71045C12.8887 8.00049 12.8441 8.29978 12.8457 8.60025V32.6255C12.8467 32.9258 12.8912 33.2249 12.9782 33.5154L28.2976 20.2647L12.9782 7.71045Z" fill="#4285F4"/>
<path d="M27.9005 20.6129L35.5603 13.9876L18.9165 5.63096C18.2903 5.30958 17.5781 5.13938 16.8524 5.1377C15.0515 5.13463 13.4683 6.18206 12.9785 7.70084L27.9005 20.6129Z" fill="#34A853"/>
</g>
<defs>
<clipPath id="clip0_984_1974">
<rect width="32" height="31" fill="white" transform="translate(12.8457 5.1377)"/>
</clipPath>
</defs>
</svg>
