<svg width="13" height="15" viewBox="0 0 13 15" fill="none" xmlns="http://www.w3.org/2000/svg">
<path fill-rule="evenodd" clip-rule="evenodd" d="M0.673175 5.28787C0.790679 3.86383 1.43934 2.53602 2.49039 1.56803C3.54144 0.60004 4.91804 0.0626378 6.34693 0.0625H6.65293C8.08181 0.0626378 9.45841 0.60004 10.5095 1.56803C11.5605 2.53602 12.2092 3.86383 12.3267 5.28787C12.4579 6.87772 11.9671 8.45646 10.9575 9.69158L7.56243 13.8438C7.43375 14.0013 7.27166 14.1282 7.0879 14.2154C6.90414 14.3026 6.70331 14.3478 6.49993 14.3478C6.29654 14.3478 6.09571 14.3026 5.91195 14.2154C5.72819 14.1282 5.5661 14.0013 5.43743 13.8438L2.04309 9.69158C1.03322 8.45657 0.542102 6.87781 0.673175 5.28787ZM6.49993 2.71875C5.60758 2.71875 4.75179 3.07323 4.12081 3.70421C3.48982 4.3352 3.13534 5.19099 3.13534 6.08333C3.13534 6.97568 3.48982 7.83147 4.12081 8.46245C4.75179 9.09343 5.60758 9.44792 6.49993 9.44792C7.39227 9.44792 8.24806 9.09343 8.87904 8.46245C9.51003 7.83147 9.86451 6.97568 9.86451 6.08333C9.86451 5.19099 9.51003 4.3352 8.87904 3.70421C8.24806 3.07323 7.39227 2.71875 6.49993 2.71875Z" fill="#99A0A8"/>
</svg>
