<svg width="226" height="103" viewBox="0 0 226 103" fill="none" xmlns="http://www.w3.org/2000/svg">
<g filter="url(#filter0_d_2323_239)">
<rect x="4" y="5" width="216" height="92" rx="3" fill="#F1F6F9"/>
</g>
<rect x="7.5" y="8.5" width="210" height="86" rx="1.5" stroke="#55BFEA" stroke-opacity="0.59" stroke-width="3"/>
<rect x="203" width="21" height="21" rx="10.5" fill="#55BFEA"/>
<path d="M211.03 13.0757L208.454 10.5001L207.577 11.371L211.03 14.8237L218.442 7.4119L217.571 6.54102L211.03 13.0757Z" fill="white"/>
<path d="M90.4466 42.5575C90.4317 43.6719 91.4889 44.2938 92.2853 44.6636C93.1034 45.0429 93.3783 45.2862 93.375 45.6255C93.3689 46.1447 92.7224 46.3738 92.1174 46.3827C91.0618 46.3983 90.4481 46.1112 89.9602 45.894L89.5799 47.5894C90.0695 47.8043 90.9759 47.9918 91.9159 48C94.1223 48 95.5658 46.9622 95.5736 45.3532C95.5823 43.3111 92.6092 43.198 92.6296 42.2853C92.6366 42.0085 92.9137 41.7132 93.5211 41.6381C93.8217 41.6001 94.6516 41.5711 95.5924 41.9839L95.9617 40.3436C95.4557 40.1681 94.8054 40 93.9958 40C91.919 40 90.4584 41.0519 90.4466 42.5575ZM99.5101 40.1413C99.1072 40.1413 98.7677 40.3652 98.6162 40.7089L95.4644 47.8795H97.6692L98.1079 46.7241H100.802L101.057 47.8795H103L101.304 40.1413H99.5101ZM99.8186 42.2317L100.455 45.1375H98.7122L99.8186 42.2317ZM87.7733 40.1414L86.0354 47.8794H88.1364L89.8736 40.1412L87.7733 40.1414ZM84.6652 40.1414L82.4784 45.4082L81.5938 40.9299C81.49 40.43 81.0801 40.1413 80.6249 40.1413H77.0501L77 40.366C77.7339 40.5177 78.5677 40.7625 79.0729 41.0243C79.382 41.1843 79.4702 41.3241 79.5718 41.7043L81.2472 47.8795H83.4675L86.8715 40.1413L84.6652 40.1414Z" fill="url(#paint0_linear_2323_239)"/>
<circle cx="133" cy="44" r="7" fill="#EB001B"/>
<circle cx="141" cy="44" r="7" fill="#F79E1B" fill-opacity="0.6"/>
<path d="M60.6245 75H58.6504L58.6631 73.7368H60.6245C61.1958 73.7368 61.674 73.612 62.0591 73.3623C62.4484 73.1126 62.7404 72.755 62.9351 72.2896C63.134 71.8241 63.2334 71.2697 63.2334 70.6265V70.125C63.2334 69.6257 63.1763 69.1834 63.062 68.7983C62.952 68.4132 62.7869 68.0895 62.5669 67.8271C62.3511 67.5648 62.0845 67.3659 61.7671 67.2305C61.4539 67.0951 61.0921 67.0273 60.6816 67.0273H58.6123V65.7578H60.6816C61.2952 65.7578 61.856 65.8615 62.3638 66.0688C62.8716 66.272 63.3096 66.5661 63.6777 66.9512C64.0501 67.3363 64.3358 67.7975 64.5347 68.335C64.7336 68.8724 64.833 69.4733 64.833 70.1377V70.6265C64.833 71.2909 64.7336 71.8918 64.5347 72.4292C64.3358 72.9666 64.0501 73.4279 63.6777 73.813C63.3053 74.1938 62.861 74.488 62.3447 74.6953C61.8327 74.8984 61.2593 75 60.6245 75ZM59.5327 65.7578V75H57.9395V65.7578H59.5327ZM69.3081 75.127C68.8003 75.127 68.3411 75.0444 67.9307 74.8794C67.5244 74.7101 67.1774 74.4753 66.8896 74.1748C66.6061 73.8743 66.3882 73.521 66.2358 73.1147C66.0835 72.7085 66.0073 72.2705 66.0073 71.8008V71.5469C66.0073 71.0094 66.0856 70.5228 66.2422 70.0869C66.3988 69.651 66.6167 69.2786 66.896 68.9697C67.1753 68.6566 67.5054 68.4175 67.8862 68.2524C68.2671 68.0874 68.6797 68.0049 69.124 68.0049C69.6149 68.0049 70.0444 68.0874 70.4126 68.2524C70.7808 68.4175 71.0854 68.6502 71.3267 68.9507C71.5721 69.2469 71.7541 69.6003 71.8726 70.0107C71.9953 70.4212 72.0566 70.874 72.0566 71.3691V72.0229H66.75V70.9248H70.5459V70.8042C70.5374 70.5291 70.4824 70.271 70.3809 70.0298C70.2835 69.7886 70.1333 69.5939 69.9302 69.4458C69.7271 69.2977 69.4562 69.2236 69.1177 69.2236C68.8638 69.2236 68.6374 69.2786 68.4385 69.3887C68.2438 69.4945 68.0809 69.6489 67.9497 69.8521C67.8185 70.0552 67.717 70.3006 67.645 70.5884C67.5773 70.8719 67.5435 71.1914 67.5435 71.5469V71.8008C67.5435 72.1012 67.5837 72.3805 67.6641 72.6387C67.7487 72.8926 67.8714 73.1147 68.0322 73.3052C68.193 73.4956 68.3877 73.6458 68.6162 73.7559C68.8447 73.8617 69.105 73.9146 69.397 73.9146C69.7651 73.9146 70.0931 73.8405 70.3809 73.6924C70.6686 73.5443 70.9183 73.3348 71.1299 73.064L71.936 73.8447C71.7879 74.0605 71.5954 74.2679 71.3584 74.4668C71.1214 74.6615 70.8315 74.8201 70.4888 74.9429C70.1502 75.0656 69.7567 75.127 69.3081 75.127ZM73.2563 65.25H74.7861V73.5337L74.6401 75H73.2563V65.25ZM79.2676 71.5024V71.6357C79.2676 72.1436 79.2104 72.6112 79.0962 73.0386C78.9862 73.4618 78.8169 73.8299 78.5884 74.1431C78.3641 74.4562 78.0848 74.6995 77.7505 74.873C77.4204 75.0423 77.0374 75.127 76.6016 75.127C76.1742 75.127 75.8018 75.0465 75.4844 74.8857C75.167 74.7249 74.9004 74.4964 74.6846 74.2002C74.473 73.904 74.3016 73.5506 74.1704 73.1401C74.0392 72.7297 73.9461 72.2769 73.8911 71.7817V71.3564C73.9461 70.8571 74.0392 70.4043 74.1704 69.998C74.3016 69.5876 74.473 69.2342 74.6846 68.938C74.9004 68.6375 75.1649 68.4069 75.478 68.2461C75.7954 68.0853 76.1657 68.0049 76.5889 68.0049C77.029 68.0049 77.4162 68.0895 77.7505 68.2588C78.089 68.4281 78.3704 68.6693 78.5947 68.9824C78.819 69.2913 78.9862 69.6595 79.0962 70.0869C79.2104 70.5143 79.2676 70.9862 79.2676 71.5024ZM77.7378 71.6357V71.5024C77.7378 71.1935 77.7124 70.9036 77.6616 70.6328C77.6108 70.3577 77.5262 70.1165 77.4077 69.9092C77.2935 69.7018 77.1369 69.5389 76.938 69.4204C76.7433 69.2977 76.5 69.2363 76.208 69.2363C75.9372 69.2363 75.7044 69.2829 75.5098 69.376C75.3151 69.4691 75.1522 69.596 75.021 69.7568C74.8898 69.9176 74.7861 70.1038 74.71 70.3154C74.638 70.527 74.5894 70.7555 74.564 71.001V72.1499C74.6021 72.4673 74.6825 72.7593 74.8052 73.0259C74.9321 73.2882 75.1099 73.4998 75.3384 73.6606C75.5669 73.8172 75.861 73.8955 76.2207 73.8955C76.5042 73.8955 76.7433 73.8384 76.938 73.7241C77.1326 73.6099 77.2871 73.4512 77.4014 73.248C77.5199 73.0407 77.6045 72.7995 77.6553 72.5244C77.7103 72.2493 77.7378 71.9531 77.7378 71.6357ZM82.2002 68.1318V75H80.6641V68.1318H82.2002ZM80.5625 66.3291C80.5625 66.0964 80.6387 65.9038 80.791 65.7515C80.9476 65.5949 81.1634 65.5166 81.4385 65.5166C81.7093 65.5166 81.923 65.5949 82.0796 65.7515C82.2362 65.9038 82.3145 66.0964 82.3145 66.3291C82.3145 66.5576 82.2362 66.748 82.0796 66.9004C81.923 67.0527 81.7093 67.1289 81.4385 67.1289C81.1634 67.1289 80.9476 67.0527 80.791 66.9004C80.6387 66.748 80.5625 66.5576 80.5625 66.3291ZM87.0244 68.1318V69.249H83.1523V68.1318H87.0244ZM84.2695 66.4497H85.7993V73.1021C85.7993 73.3136 85.8289 73.4766 85.8882 73.5908C85.9517 73.7008 86.0384 73.7749 86.1484 73.813C86.2585 73.8511 86.3875 73.8701 86.5356 73.8701C86.6414 73.8701 86.743 73.8638 86.8403 73.8511C86.9377 73.8384 87.016 73.8257 87.0752 73.813L87.0815 74.981C86.9546 75.019 86.8065 75.0529 86.6372 75.0825C86.4722 75.1121 86.2817 75.127 86.0659 75.127C85.7147 75.127 85.4036 75.0656 85.1328 74.9429C84.862 74.8159 84.6504 74.6107 84.498 74.3271C84.3457 74.0436 84.2695 73.667 84.2695 73.1973V66.4497ZM95.4604 65.7578L91.8613 75.7935H90.6616L94.2671 65.7578H95.4604ZM105.369 71.9912H106.956C106.905 72.5964 106.736 73.1359 106.448 73.6099C106.16 74.0796 105.756 74.4499 105.236 74.7207C104.715 74.9915 104.083 75.127 103.338 75.127C102.767 75.127 102.252 75.0254 101.795 74.8223C101.338 74.6149 100.947 74.3229 100.621 73.9463C100.295 73.5654 100.046 73.1063 99.8721 72.5688C99.7028 72.0314 99.6182 71.4305 99.6182 70.7661V69.998C99.6182 69.3337 99.7049 68.7327 99.8784 68.1953C100.056 67.6579 100.31 67.1987 100.64 66.8179C100.97 66.4328 101.366 66.1387 101.827 65.9355C102.293 65.7324 102.815 65.6309 103.395 65.6309C104.131 65.6309 104.753 65.7663 105.261 66.0371C105.769 66.3079 106.163 66.6825 106.442 67.1606C106.725 67.6388 106.899 68.1868 106.962 68.8047H105.375C105.333 68.4069 105.24 68.0662 105.096 67.7827C104.957 67.4992 104.749 67.2834 104.474 67.1353C104.199 66.9829 103.839 66.9067 103.395 66.9067C103.031 66.9067 102.714 66.9744 102.443 67.1099C102.172 67.2453 101.946 67.4442 101.764 67.7065C101.582 67.9689 101.444 68.2926 101.351 68.6777C101.262 69.0586 101.218 69.4945 101.218 69.9854V70.7661C101.218 71.2316 101.258 71.6548 101.338 72.0356C101.423 72.4123 101.55 72.736 101.719 73.0068C101.893 73.2777 102.113 73.4871 102.379 73.6353C102.646 73.7834 102.965 73.8574 103.338 73.8574C103.791 73.8574 104.157 73.7855 104.436 73.6416C104.72 73.4977 104.933 73.2882 105.077 73.0132C105.225 72.7339 105.323 72.3932 105.369 71.9912ZM109.787 69.4395V75H108.257V68.1318H109.717L109.787 69.4395ZM111.888 68.0874L111.875 69.5093C111.782 69.4924 111.681 69.4797 111.571 69.4712C111.465 69.4627 111.359 69.4585 111.253 69.4585C110.991 69.4585 110.76 69.4966 110.562 69.5728C110.363 69.6447 110.195 69.7505 110.06 69.8901C109.929 70.0256 109.827 70.1906 109.755 70.3853C109.683 70.5799 109.641 70.7979 109.628 71.0391L109.279 71.0645C109.279 70.6328 109.322 70.2329 109.406 69.8647C109.491 69.4966 109.618 69.1729 109.787 68.8936C109.961 68.6143 110.176 68.3963 110.435 68.2397C110.697 68.0832 111 68.0049 111.342 68.0049C111.435 68.0049 111.535 68.0133 111.641 68.0303C111.751 68.0472 111.833 68.0662 111.888 68.0874ZM115.748 75.127C115.24 75.127 114.781 75.0444 114.37 74.8794C113.964 74.7101 113.617 74.4753 113.329 74.1748C113.046 73.8743 112.828 73.521 112.675 73.1147C112.523 72.7085 112.447 72.2705 112.447 71.8008V71.5469C112.447 71.0094 112.525 70.5228 112.682 70.0869C112.838 69.651 113.056 69.2786 113.335 68.9697C113.615 68.6566 113.945 68.4175 114.326 68.2524C114.707 68.0874 115.119 68.0049 115.563 68.0049C116.054 68.0049 116.484 68.0874 116.852 68.2524C117.22 68.4175 117.525 68.6502 117.766 68.9507C118.012 69.2469 118.194 69.6003 118.312 70.0107C118.435 70.4212 118.496 70.874 118.496 71.3691V72.0229H113.189V70.9248H116.985V70.8042C116.977 70.5291 116.922 70.271 116.82 70.0298C116.723 69.7886 116.573 69.5939 116.37 69.4458C116.167 69.2977 115.896 69.2236 115.557 69.2236C115.303 69.2236 115.077 69.2786 114.878 69.3887C114.683 69.4945 114.52 69.6489 114.389 69.8521C114.258 70.0552 114.156 70.3006 114.084 70.5884C114.017 70.8719 113.983 71.1914 113.983 71.5469V71.8008C113.983 72.1012 114.023 72.3805 114.104 72.6387C114.188 72.8926 114.311 73.1147 114.472 73.3052C114.632 73.4956 114.827 73.6458 115.056 73.7559C115.284 73.8617 115.544 73.9146 115.836 73.9146C116.205 73.9146 116.533 73.8405 116.82 73.6924C117.108 73.5443 117.358 73.3348 117.569 73.064L118.375 73.8447C118.227 74.0605 118.035 74.2679 117.798 74.4668C117.561 74.6615 117.271 74.8201 116.928 74.9429C116.59 75.0656 116.196 75.127 115.748 75.127ZM123.879 73.5781V65.25H125.415V75H124.025L123.879 73.5781ZM119.41 71.6421V71.5088C119.41 70.9883 119.472 70.5143 119.594 70.0869C119.717 69.6553 119.895 69.285 120.127 68.9761C120.36 68.6629 120.644 68.4238 120.978 68.2588C121.312 68.0895 121.689 68.0049 122.108 68.0049C122.523 68.0049 122.887 68.0853 123.2 68.2461C123.513 68.4069 123.779 68.6375 124 68.938C124.22 69.2342 124.395 69.5897 124.526 70.0044C124.658 70.4149 124.751 70.8719 124.806 71.3755V71.8008C124.751 72.2917 124.658 72.7402 124.526 73.1465C124.395 73.5527 124.22 73.904 124 74.2002C123.779 74.4964 123.511 74.7249 123.193 74.8857C122.88 75.0465 122.514 75.127 122.095 75.127C121.681 75.127 121.306 75.0402 120.972 74.8667C120.642 74.6932 120.36 74.4499 120.127 74.1367C119.895 73.8236 119.717 73.4554 119.594 73.0322C119.472 72.6048 119.41 72.1414 119.41 71.6421ZM120.94 71.5088V71.6421C120.94 71.9552 120.967 72.2472 121.022 72.5181C121.082 72.7889 121.173 73.028 121.295 73.2354C121.418 73.4385 121.577 73.5993 121.771 73.7178C121.97 73.832 122.207 73.8892 122.482 73.8892C122.829 73.8892 123.115 73.813 123.339 73.6606C123.564 73.5083 123.739 73.3031 123.866 73.0449C123.997 72.7826 124.086 72.4906 124.133 72.1689V71.02C124.107 70.7703 124.055 70.5376 123.974 70.3218C123.898 70.106 123.794 69.9176 123.663 69.7568C123.532 69.5918 123.369 69.4648 123.174 69.376C122.984 69.2829 122.757 69.2363 122.495 69.2363C122.216 69.2363 121.979 69.2956 121.784 69.4141C121.59 69.5326 121.429 69.6955 121.302 69.9028C121.179 70.1102 121.088 70.3514 121.029 70.6265C120.97 70.9015 120.94 71.1956 120.94 71.5088ZM128.652 68.1318V75H127.116V68.1318H128.652ZM127.015 66.3291C127.015 66.0964 127.091 65.9038 127.243 65.7515C127.4 65.5949 127.616 65.5166 127.891 65.5166C128.161 65.5166 128.375 65.5949 128.532 65.7515C128.688 65.9038 128.767 66.0964 128.767 66.3291C128.767 66.5576 128.688 66.748 128.532 66.9004C128.375 67.0527 128.161 67.1289 127.891 67.1289C127.616 67.1289 127.4 67.0527 127.243 66.9004C127.091 66.748 127.015 66.5576 127.015 66.3291ZM133.477 68.1318V69.249H129.604V68.1318H133.477ZM130.722 66.4497H132.251V73.1021C132.251 73.3136 132.281 73.4766 132.34 73.5908C132.404 73.7008 132.491 73.7749 132.601 73.813C132.711 73.8511 132.84 73.8701 132.988 73.8701C133.094 73.8701 133.195 73.8638 133.292 73.8511C133.39 73.8384 133.468 73.8257 133.527 73.813L133.534 74.981C133.407 75.019 133.259 75.0529 133.089 75.0825C132.924 75.1121 132.734 75.127 132.518 75.127C132.167 75.127 131.856 75.0656 131.585 74.9429C131.314 74.8159 131.103 74.6107 130.95 74.3271C130.798 74.0436 130.722 73.667 130.722 73.1973V66.4497ZM143.506 71.9912H145.093C145.042 72.5964 144.873 73.1359 144.585 73.6099C144.297 74.0796 143.893 74.4499 143.373 74.7207C142.852 74.9915 142.219 75.127 141.475 75.127C140.903 75.127 140.389 75.0254 139.932 74.8223C139.475 74.6149 139.084 74.3229 138.758 73.9463C138.432 73.5654 138.182 73.1063 138.009 72.5688C137.84 72.0314 137.755 71.4305 137.755 70.7661V69.998C137.755 69.3337 137.842 68.7327 138.015 68.1953C138.193 67.6579 138.447 67.1987 138.777 66.8179C139.107 66.4328 139.503 66.1387 139.964 65.9355C140.429 65.7324 140.952 65.6309 141.532 65.6309C142.268 65.6309 142.89 65.7663 143.398 66.0371C143.906 66.3079 144.299 66.6825 144.579 67.1606C144.862 67.6388 145.036 68.1868 145.099 68.8047H143.512C143.47 68.4069 143.377 68.0662 143.233 67.7827C143.093 67.4992 142.886 67.2834 142.611 67.1353C142.336 66.9829 141.976 66.9067 141.532 66.9067C141.168 66.9067 140.85 66.9744 140.58 67.1099C140.309 67.2453 140.082 67.4442 139.9 67.7065C139.718 67.9689 139.581 68.2926 139.488 68.6777C139.399 69.0586 139.354 69.4945 139.354 69.9854V70.7661C139.354 71.2316 139.395 71.6548 139.475 72.0356C139.56 72.4123 139.687 72.736 139.856 73.0068C140.029 73.2777 140.25 73.4871 140.516 73.6353C140.783 73.7834 141.102 73.8574 141.475 73.8574C141.927 73.8574 142.293 73.7855 142.573 73.6416C142.856 73.4977 143.07 73.2882 143.214 73.0132C143.362 72.7339 143.459 72.3932 143.506 71.9912ZM150.26 73.6226V70.3472C150.26 70.1017 150.215 69.8901 150.126 69.7124C150.038 69.5347 149.902 69.3971 149.72 69.2998C149.542 69.2025 149.318 69.1538 149.047 69.1538C148.798 69.1538 148.582 69.1961 148.4 69.2808C148.218 69.3654 148.076 69.4797 147.975 69.6235C147.873 69.7674 147.822 69.9303 147.822 70.1123H146.299C146.299 69.8415 146.364 69.5791 146.496 69.3252C146.627 69.0713 146.817 68.8449 147.067 68.646C147.317 68.4471 147.615 68.2905 147.962 68.1763C148.309 68.062 148.698 68.0049 149.13 68.0049C149.646 68.0049 150.103 68.0916 150.501 68.2651C150.903 68.4386 151.218 68.701 151.447 69.0522C151.68 69.3993 151.796 69.8351 151.796 70.3599V73.4131C151.796 73.7262 151.817 74.0076 151.859 74.2573C151.906 74.5028 151.972 74.7165 152.056 74.8984V75H150.488C150.416 74.835 150.359 74.6255 150.317 74.3716C150.279 74.1134 150.26 73.8638 150.26 73.6226ZM150.482 70.8232L150.495 71.769H149.396C149.113 71.769 148.863 71.7965 148.647 71.8516C148.432 71.9023 148.252 71.9785 148.108 72.0801C147.964 72.1816 147.856 72.3044 147.784 72.4482C147.712 72.5921 147.676 72.755 147.676 72.937C147.676 73.119 147.719 73.2861 147.803 73.4385C147.888 73.5866 148.011 73.703 148.171 73.7876C148.336 73.8722 148.535 73.9146 148.768 73.9146C149.081 73.9146 149.354 73.8511 149.587 73.7241C149.824 73.5929 150.01 73.4342 150.146 73.248C150.281 73.0576 150.353 72.8778 150.361 72.7085L150.856 73.3877C150.806 73.5612 150.719 73.7474 150.596 73.9463C150.473 74.1452 150.313 74.3356 150.114 74.5176C149.919 74.6953 149.684 74.8413 149.409 74.9556C149.138 75.0698 148.825 75.127 148.47 75.127C148.021 75.127 147.621 75.0381 147.27 74.8604C146.919 74.6784 146.644 74.4351 146.445 74.1304C146.246 73.8215 146.146 73.4723 146.146 73.083C146.146 72.7191 146.214 72.3975 146.35 72.1182C146.489 71.8346 146.692 71.5977 146.959 71.4072C147.23 71.2168 147.56 71.0729 147.949 70.9756C148.339 70.874 148.783 70.8232 149.282 70.8232H150.482ZM154.932 69.4395V75H153.402V68.1318H154.862L154.932 69.4395ZM157.033 68.0874L157.02 69.5093C156.927 69.4924 156.825 69.4797 156.715 69.4712C156.61 69.4627 156.504 69.4585 156.398 69.4585C156.136 69.4585 155.905 69.4966 155.706 69.5728C155.507 69.6447 155.34 69.7505 155.205 69.8901C155.073 70.0256 154.972 70.1906 154.9 70.3853C154.828 70.5799 154.786 70.7979 154.773 71.0391L154.424 71.0645C154.424 70.6328 154.466 70.2329 154.551 69.8647C154.635 69.4966 154.762 69.1729 154.932 68.8936C155.105 68.6143 155.321 68.3963 155.579 68.2397C155.841 68.0832 156.144 68.0049 156.487 68.0049C156.58 68.0049 156.679 68.0133 156.785 68.0303C156.895 68.0472 156.978 68.0662 157.033 68.0874ZM162.054 73.5781V65.25H163.59V75H162.2L162.054 73.5781ZM157.585 71.6421V71.5088C157.585 70.9883 157.646 70.5143 157.769 70.0869C157.892 69.6553 158.069 69.285 158.302 68.9761C158.535 68.6629 158.819 68.4238 159.153 68.2588C159.487 68.0895 159.864 68.0049 160.283 68.0049C160.697 68.0049 161.061 68.0853 161.375 68.2461C161.688 68.4069 161.954 68.6375 162.174 68.938C162.394 69.2342 162.57 69.5897 162.701 70.0044C162.832 70.4149 162.925 70.8719 162.98 71.3755V71.8008C162.925 72.2917 162.832 72.7402 162.701 73.1465C162.57 73.5527 162.394 73.904 162.174 74.2002C161.954 74.4964 161.686 74.7249 161.368 74.8857C161.055 75.0465 160.689 75.127 160.27 75.127C159.855 75.127 159.481 75.0402 159.146 74.8667C158.816 74.6932 158.535 74.4499 158.302 74.1367C158.069 73.8236 157.892 73.4554 157.769 73.0322C157.646 72.6048 157.585 72.1414 157.585 71.6421ZM159.115 71.5088V71.6421C159.115 71.9552 159.142 72.2472 159.197 72.5181C159.257 72.7889 159.347 73.028 159.47 73.2354C159.593 73.4385 159.752 73.5993 159.946 73.7178C160.145 73.832 160.382 73.8892 160.657 73.8892C161.004 73.8892 161.29 73.813 161.514 73.6606C161.738 73.5083 161.914 73.3031 162.041 73.0449C162.172 72.7826 162.261 72.4906 162.308 72.1689V71.02C162.282 70.7703 162.229 70.5376 162.149 70.3218C162.073 70.106 161.969 69.9176 161.838 69.7568C161.707 69.5918 161.544 69.4648 161.349 69.376C161.159 69.2829 160.932 69.2363 160.67 69.2363C160.391 69.2363 160.154 69.2956 159.959 69.4141C159.764 69.5326 159.604 69.6955 159.477 69.9028C159.354 70.1102 159.263 70.3514 159.204 70.6265C159.144 70.9015 159.115 71.1956 159.115 71.5088Z" fill="#55BFEA"/>
<defs>
<filter id="filter0_d_2323_239" x="0" y="1" width="226" height="102" filterUnits="userSpaceOnUse" color-interpolation-filters="sRGB">
<feFlood flood-opacity="0" result="BackgroundImageFix"/>
<feColorMatrix in="SourceAlpha" type="matrix" values="0 0 0 0 0 0 0 0 0 0 0 0 0 0 0 0 0 0 127 0" result="hardAlpha"/>
<feOffset dx="1" dy="1"/>
<feGaussianBlur stdDeviation="2.5"/>
<feComposite in2="hardAlpha" operator="out"/>
<feColorMatrix type="matrix" values="0 0 0 0 0 0 0 0 0 0 0 0 0 0 0 0 0 0 0.25 0"/>
<feBlend mode="normal" in2="BackgroundImageFix" result="effect1_dropShadow_2323_239"/>
<feBlend mode="normal" in="SourceGraphic" in2="effect1_dropShadow_2323_239" result="shape"/>
</filter>
<linearGradient id="paint0_linear_2323_239" x1="1272.32" y1="64.048" x2="1294.39" y2="-757.624" gradientUnits="userSpaceOnUse">
<stop stop-color="#222357"/>
<stop offset="1" stop-color="#254AA5"/>
</linearGradient>
</defs>
</svg>
