<svg xmlns="http://www.w3.org/2000/svg" width="236" height="236" viewBox="0 0 236 236" fill="none">
<circle cx="118" cy="118" r="118" fill="#55BFEA"/>
<circle cx="118.448" cy="118.448" r="48.4563" fill="white"/>
<path d="M108.026 130.377L95.0497 117.541L90.6309 121.881L108.026 139.088L145.369 102.15L140.981 97.8101L108.026 130.377Z" fill="#55BFEA"/>
<path d="M28.715 93.3232L33.3486 107.584H48.3436L36.2124 116.398L40.8461 130.659L28.715 121.845L16.5838 130.659L21.2175 116.398L9.08631 107.584H24.0813L28.715 93.3232Z" fill="white"/>
<path d="M175.878 160.624L180.512 174.885H195.507L183.376 183.698L188.009 197.959L175.878 189.146L163.747 197.959L168.381 183.698L156.249 174.885H171.244L175.878 160.624Z" fill="white"/>
<path d="M77.171 26.0229L80.193 35.3236H89.9723L82.0607 41.0718L85.0826 50.3725L77.171 44.6243L69.2594 50.3725L72.2814 41.0718L64.3697 35.3236H74.149L77.171 26.0229Z" fill="white"/>
<path d="M203.695 78.0684L206.717 87.369H216.497L208.585 93.1172L211.607 102.418L203.695 96.6697L195.784 102.418L198.806 93.1172L190.894 87.369H200.673L203.695 78.0684Z" fill="white"/>
<path d="M122.038 8.07617L125.06 17.3769H134.839L126.928 23.125L129.95 32.4257L122.038 26.6775L114.127 32.4257L117.149 23.125L109.237 17.3769H119.016L122.038 8.07617Z" fill="white"/>
<path d="M46.6617 60.1216L48.8779 66.9421L56.0494 66.9421L50.2475 71.1574L52.4636 77.9779L46.6617 73.7626L40.8599 77.9779L43.076 71.1574L37.2741 66.9421L44.4456 66.9421L46.6617 60.1216Z" fill="white"/>
<path d="M117.551 187.544L119.768 194.364L126.939 194.364L121.137 198.58L123.353 205.4L117.551 201.185L111.75 205.4L113.966 198.58L108.164 194.364L115.335 194.364L117.551 187.544Z" fill="white"/>
<path d="M204.145 125.627L206.461 132.758H213.959L207.893 137.165L210.21 144.295L204.145 139.888L198.079 144.295L200.396 137.165L194.33 132.758H201.828L204.145 125.627Z" fill="white"/>
<path d="M74.0303 176.776L76.3472 183.906H83.8447L77.7791 188.313L80.0959 195.444L74.0303 191.037L67.9647 195.444L70.2816 188.313L64.216 183.906H71.7135L74.0303 176.776Z" fill="white"/>
<path d="M43.5206 146.266L45.8374 153.397H53.3349L47.2693 157.804L49.5861 164.934L43.5206 160.527L37.455 164.934L39.7718 157.804L33.7062 153.397H41.2037L43.5206 146.266Z" fill="white"/>
<path d="M161.072 28.7148L163.389 35.8454H170.887L164.821 40.2523L167.138 47.3828L161.072 42.9759L155.007 47.3828L157.324 40.2523L151.258 35.8454H158.755L161.072 28.7148Z" fill="white"/>
<path d="M181.263 52.0454L182.874 57.0058H188.09L183.871 60.0714L185.482 65.0318L181.263 61.9661L177.043 65.0318L178.655 60.0714L174.435 57.0058H179.651L181.263 52.0454Z" fill="white"/>
</svg>