<svg width="20" height="20" viewBox="0 0 20 20" fill="none" xmlns="http://www.w3.org/2000/svg">
<path d="M1.25 15.4167V11.6667L1.81333 11.5133C7.17322 10.0515 12.8268 10.0515 18.1867 11.5133L18.75 11.6667V15.4167M1.25 15.4167C1.25 15.4167 1.25 17.9167 0 17.9167M1.25 15.4167H18.75M18.75 15.4167C18.75 15.4167 18.75 17.9167 20 17.9167M2.91667 9.16667C2.91667 7.50917 2.66917 5.86167 2.18167 4.2775L2.08333 3.95833V3.75H17.9167V3.95833L17.8183 4.2775C17.331 5.86148 17.0833 7.50942 17.0833 9.16667M10 6.25H5.41667V9.16667M10 6.25V9.16667M10 6.25H14.5833V9.16667" stroke="#494949"/>
</svg>
