<svg width="20" height="16" viewBox="0 0 20 16" fill="none" xmlns="http://www.w3.org/2000/svg">
<path d="M1.25 12.4167V8.66667L1.81333 8.51333C7.17322 7.05146 12.8268 7.05146 18.1867 8.51333L18.75 8.66667V12.4167M1.25 12.4167C1.25 12.4167 1.25 14.9167 0 14.9167M1.25 12.4167H18.75M18.75 12.4167C18.75 12.4167 18.75 14.9167 20 14.9167M2.91667 6.16667C2.91667 4.50917 2.66917 2.86167 2.18167 1.2775L2.08333 0.958333V0.75H17.9167V0.958333L17.8183 1.2775C17.331 2.86148 17.0833 4.50942 17.0833 6.16667M10 3.25H5.41667V6.16667M10 3.25V6.16667M10 3.25H14.5833V6.16667" stroke="white"/>
</svg>
