<svg width="20" height="21" viewBox="0 0 20 21" fill="none" xmlns="http://www.w3.org/2000/svg">
<path d="M1.25 15.9167V12.1667L1.81333 12.0133C7.17322 10.5515 12.8268 10.5515 18.1867 12.0133L18.75 12.1667V15.9167M1.25 15.9167C1.25 15.9167 1.25 18.4167 0 18.4167M1.25 15.9167H18.75M18.75 15.9167C18.75 15.9167 18.75 18.4167 20 18.4167M2.91667 9.66667C2.91667 8.00917 2.66917 6.36167 2.18167 4.7775L2.08333 4.45833V4.25H17.9167V4.45833L17.8183 4.7775C17.331 6.36148 17.0833 8.00942 17.0833 9.66667M10 6.75H5.41667V9.66667M10 6.75V9.66667M10 6.75H14.5833V9.66667" stroke="#494949"/>
</svg>
