<svg width="45" height="46" viewBox="0 0 45 46" fill="none" xmlns="http://www.w3.org/2000/svg">
<path d="M40.036 22.195L22.786 4.94501C22.096 4.25501 21.1377 3.83334 20.0835 3.83334H6.66683C4.5585 3.83334 2.8335 5.55834 2.8335 7.66668V21.0833C2.8335 22.1375 3.25516 23.0958 3.96433 23.805L21.2143 41.055C21.9043 41.745 22.8627 42.1667 23.9168 42.1667C24.971 42.1667 25.9293 41.745 26.6193 41.0358L40.036 27.6192C40.7452 26.9292 41.1668 25.9708 41.1668 24.9167C41.1668 23.8625 40.726 22.885 40.036 22.195ZM23.9168 38.3525L6.66683 21.0833V7.66668H20.0835V7.64751L37.3335 24.8975L23.9168 38.3525Z" fill="#494949"/>
<path d="M11.4585 15.3333C13.0463 15.3333 14.3335 14.0462 14.3335 12.4583C14.3335 10.8705 13.0463 9.58334 11.4585 9.58334C9.87068 9.58334 8.5835 10.8705 8.5835 12.4583C8.5835 14.0462 9.87068 15.3333 11.4585 15.3333Z" fill="#494949"/>
</svg>
