<svg xmlns="http://www.w3.org/2000/svg" width="27" height="27" viewBox="0 0 27 27" fill="none">
<path d="M6.98694 22.9637C6.83167 23.0987 6.6411 23.1866 6.43761 23.2171C6.23412 23.2476 6.02615 23.2194 5.83812 23.1358C5.65009 23.0523 5.4898 22.9168 5.37608 22.7453C5.26235 22.5738 5.19991 22.3735 5.19608 22.1677V19.7421C4.62245 19.7421 4.07231 19.5142 3.66669 19.1086C3.26108 18.703 3.0332 18.1528 3.0332 17.5792V10.0091C3.0332 9.4355 3.26108 8.88537 3.66669 8.47975C4.07231 8.07413 4.62245 7.84626 5.19608 7.84626H17.0919C17.6655 7.84626 18.2157 8.07413 18.6213 8.47975C19.0269 8.88537 19.2548 9.4355 19.2548 10.0091V17.5792C19.2548 18.1528 19.0269 18.703 18.6213 19.1086C18.2157 19.5142 17.6655 19.7421 17.0919 19.7421H11.688L6.98694 22.9637ZM20.3362 14.3533C20.3328 14.4863 20.3328 14.6193 20.3362 14.7523V14.3533ZM20.3362 14.3533C20.3416 14.2376 20.3427 12.7884 20.3405 10.007C20.3397 9.14709 19.9975 8.32272 19.3892 7.71499C18.7808 7.10727 17.9561 6.7659 17.0962 6.7659H8.44039V5.68338C8.44039 5.10975 8.66827 4.55962 9.07388 4.154C9.4795 3.74838 10.0296 3.52051 10.6033 3.52051H22.4991C23.0727 3.52051 23.6229 3.74838 24.0285 4.154C24.4341 4.55962 24.662 5.10975 24.662 5.68338V13.2534C24.662 13.8271 24.4341 14.3772 24.0285 14.7828C23.6229 15.1885 23.0727 15.4163 22.4991 15.4163V17.842C22.4953 18.0477 22.4328 18.2481 22.3191 18.4196C22.2054 18.591 22.0451 18.7265 21.857 18.8101C21.669 18.8937 21.4611 18.9219 21.2576 18.8914C21.0541 18.8609 20.8635 18.7729 20.7082 18.6379L20.3362 18.3827V14.3533Z" fill="white"/>
</svg>