<svg width="12" height="12" viewBox="0 0 12 12" fill="none" xmlns="http://www.w3.org/2000/svg">
<path d="M4.375 5C4.375 4.56902 4.54621 4.1557 4.85095 3.85095C5.1557 3.5462 5.56902 3.375 6 3.375C6.43098 3.375 6.8443 3.5462 7.14905 3.85095C7.45379 4.1557 7.625 4.56902 7.625 5C7.625 5.43098 7.45379 5.8443 7.14905 6.14905C6.8443 6.45379 6.43098 6.625 6 6.625C5.56902 6.625 5.1557 6.45379 4.85095 6.14905C4.54621 5.8443 4.375 5.43098 4.375 5Z" fill="#99A0A8"/>
<path fill-rule="evenodd" clip-rule="evenodd" d="M1.88677 4.4385C1.96972 3.43329 2.42759 2.49602 3.16951 1.81273C3.91143 1.12944 4.88315 0.750097 5.89178 0.75H6.10777C7.1164 0.750097 8.08812 1.12944 8.83004 1.81273C9.57196 2.49602 10.0298 3.43329 10.1128 4.4385C10.2054 5.56074 9.85894 6.67515 9.14627 7.547L6.74977 10.478C6.65894 10.5892 6.54453 10.6788 6.41482 10.7403C6.28511 10.8018 6.14334 10.8337 5.99977 10.8337C5.85621 10.8337 5.71444 10.8018 5.58473 10.7403C5.45502 10.6788 5.34061 10.5892 5.24977 10.478L2.85378 7.547C2.14093 6.67522 1.79425 5.56081 1.88677 4.4385ZM5.99977 2.625C5.36989 2.625 4.7658 2.87522 4.3204 3.32062C3.875 3.76602 3.62478 4.37011 3.62478 5C3.62478 5.62989 3.875 6.23398 4.3204 6.67938C4.7658 7.12478 5.36989 7.375 5.99977 7.375C6.62966 7.375 7.23375 7.12478 7.67915 6.67938C8.12455 6.23398 8.37477 5.62989 8.37477 5C8.37477 4.37011 8.12455 3.76602 7.67915 3.32062C7.23375 2.87522 6.62966 2.625 5.99977 2.625Z" fill="#99A0A8"/>
</svg>
