<svg width="20" height="21" viewBox="0 0 20 21" fill="none" xmlns="http://www.w3.org/2000/svg">
<g clip-path="url(#clip0_780_801)">
<path d="M17.917 3.83301H16.1115V4.94412H17.7781V17.1663H2.22258V4.94412H3.88925V3.83301H2.08369C1.95382 3.83518 1.82566 3.86291 1.70651 3.91462C1.58736 3.96634 1.47957 4.04101 1.38928 4.13439C1.299 4.22777 1.228 4.33802 1.18033 4.45884C1.13266 4.57967 1.10926 4.7087 1.11147 4.83856V17.2719C1.10926 17.4018 1.13266 17.5308 1.18033 17.6516C1.228 17.7724 1.299 17.8827 1.38928 17.9761C1.47957 18.0694 1.58736 18.1441 1.70651 18.1958C1.82566 18.2475 1.95382 18.2753 2.08369 18.2774H17.917C18.0469 18.2753 18.1751 18.2475 18.2942 18.1958C18.4134 18.1441 18.5212 18.0694 18.6114 17.9761C18.7017 17.8827 18.7727 17.7724 18.8204 17.6516C18.8681 17.5308 18.8915 17.4018 18.8892 17.2719V4.83856C18.8915 4.7087 18.8681 4.57967 18.8204 4.45884C18.7727 4.33802 18.7017 4.22777 18.6114 4.13439C18.5212 4.04101 18.4134 3.96634 18.2942 3.91462C18.1751 3.86291 18.0469 3.83518 17.917 3.83301Z" fill="#494949"/>
<path d="M4.44434 8.27734H5.55545V9.38845H4.44434V8.27734Z" fill="#494949"/>
<path d="M7.77734 8.27734H8.88845V9.38845H7.77734V8.27734Z" fill="#494949"/>
<path d="M11.1113 8.27734H12.2224V9.38845H11.1113V8.27734Z" fill="#494949"/>
<path d="M14.4443 8.27734H15.5554V9.38845H14.4443V8.27734Z" fill="#494949"/>
<path d="M4.44434 11.0557H5.55545V12.1668H4.44434V11.0557Z" fill="#494949"/>
<path d="M7.77734 11.0557H8.88845V12.1668H7.77734V11.0557Z" fill="#494949"/>
<path d="M11.1113 11.0557H12.2224V12.1668H11.1113V11.0557Z" fill="#494949"/>
<path d="M14.4443 11.0557H15.5554V12.1668H14.4443V11.0557Z" fill="#494949"/>
<path d="M4.44434 13.833H5.55545V14.9441H4.44434V13.833Z" fill="#494949"/>
<path d="M7.77734 13.833H8.88845V14.9441H7.77734V13.833Z" fill="#494949"/>
<path d="M11.1113 13.833H12.2224V14.9441H11.1113V13.833Z" fill="#494949"/>
<path d="M14.4443 13.833H15.5554V14.9441H14.4443V13.833Z" fill="#494949"/>
<path d="M5.55556 6.05577C5.7029 6.05577 5.84421 5.99724 5.94839 5.89305C6.05258 5.78887 6.11111 5.64756 6.11111 5.50022V2.16688C6.11111 2.01954 6.05258 1.87823 5.94839 1.77405C5.84421 1.66986 5.7029 1.61133 5.55556 1.61133C5.40821 1.61133 5.26691 1.66986 5.16272 1.77405C5.05853 1.87823 5 2.01954 5 2.16688V5.50022C5 5.64756 5.05853 5.78887 5.16272 5.89305C5.26691 5.99724 5.40821 6.05577 5.55556 6.05577Z" fill="#494949"/>
<path d="M14.4442 6.05577C14.5916 6.05577 14.7329 5.99724 14.8371 5.89305C14.9413 5.78887 14.9998 5.64756 14.9998 5.50022V2.16688C14.9998 2.01954 14.9413 1.87823 14.8371 1.77405C14.7329 1.66986 14.5916 1.61133 14.4442 1.61133C14.2969 1.61133 14.1556 1.66986 14.0514 1.77405C13.9472 1.87823 13.8887 2.01954 13.8887 2.16688V5.50022C13.8887 5.64756 13.9472 5.78887 14.0514 5.89305C14.1556 5.99724 14.2969 6.05577 14.4442 6.05577Z" fill="#494949"/>
<path d="M7.22266 3.83301H12.7782V4.94412H7.22266V3.83301Z" fill="#494949"/>
</g>
<defs>
<clipPath id="clip0_780_801">
<rect width="20" height="20" fill="white" transform="translate(0 0.5)"/>
</clipPath>
</defs>
</svg>
