<svg width="46" height="46" viewBox="0 0 46 46" fill="none" xmlns="http://www.w3.org/2000/svg">
<path d="M35.8802 28.29C36.551 26.6608 36.9152 24.9167 36.9152 23C36.9152 21.62 36.7043 20.2975 36.3402 19.0708C35.0943 19.3583 33.791 19.5117 32.4302 19.5117C29.6433 19.5147 26.8965 18.8476 24.4214 17.5667C21.9463 16.2858 19.8155 14.4286 18.2085 12.1517C16.4911 16.3123 13.2476 19.6586 9.14266 21.505C9.066 21.9842 9.066 22.5017 9.066 23C9.066 24.8299 9.42641 26.6418 10.1267 28.3324C10.8269 30.0229 11.8533 31.559 13.1472 32.8529C15.7604 35.4661 19.3046 36.9342 23.0002 36.9342C25.0127 36.9342 26.9485 36.4933 28.6927 35.7075C29.7852 37.7967 30.2835 38.8317 30.2452 38.8317C27.1018 39.8858 24.6677 40.4033 23.0002 40.4033C18.3618 40.4033 13.9343 38.5825 10.676 35.305C8.69234 33.3307 7.21885 30.9034 6.38266 28.2325H3.8335V19.5117H5.92266C6.55563 16.4306 8.01086 13.5785 10.1339 11.2577C12.257 8.93698 14.9688 7.23428 17.9814 6.33029C20.9941 5.42629 24.1953 5.35473 27.2453 6.12319C30.2954 6.89165 33.0805 8.47146 35.3052 10.695C37.7198 13.1015 39.3671 16.1695 40.0393 19.5117H42.1668V28.2325H42.0518L35.2285 34.5L25.0702 33.35V30.1492H34.3277L35.8802 28.29ZM17.7677 22.5592C18.3427 22.5592 18.8985 22.7892 19.301 23.2108C19.7055 23.6186 19.9325 24.1698 19.9325 24.7442C19.9325 25.3186 19.7055 25.8697 19.301 26.2775C18.8985 26.68 18.3427 26.91 17.7677 26.91C16.5602 26.91 15.5827 25.9517 15.5827 24.7442C15.5827 23.5367 16.5602 22.5592 17.7677 22.5592ZM28.2135 22.5592C29.421 22.5592 30.3793 23.5367 30.3793 24.7442C30.3793 25.9517 29.421 26.91 28.2135 26.91C27.006 26.91 26.0285 25.9517 26.0285 24.7442C26.0285 24.1647 26.2587 23.6089 26.6685 23.1991C27.0782 22.7894 27.634 22.5592 28.2135 22.5592Z" fill="#494949"/>
</svg>
