<svg width="12" height="12" viewBox="0 0 12 12" fill="none" xmlns="http://www.w3.org/2000/svg">
<path d="M11.5927 5.84812C11.5762 5.81109 11.1792 4.93031 10.2966 4.04766C9.12046 2.87156 7.635 2.25 6 2.25C4.365 2.25 2.87953 2.87156 1.70343 4.04766C0.820777 4.93031 0.421871 5.8125 0.407339 5.84812C0.386017 5.89608 0.375 5.94798 0.375 6.00047C0.375 6.05295 0.386017 6.10485 0.407339 6.15281C0.423746 6.18984 0.820777 7.07016 1.70343 7.95281C2.87953 9.12844 4.365 9.75 6 9.75C7.635 9.75 9.12046 9.12844 10.2966 7.95281C11.1792 7.07016 11.5762 6.18984 11.5927 6.15281C11.614 6.10485 11.625 6.05295 11.625 6.00047C11.625 5.94798 11.614 5.89608 11.5927 5.84812ZM6 9C4.55718 9 3.29671 8.47547 2.25328 7.44141C1.82516 7.01562 1.46091 6.53012 1.17187 6C1.4608 5.4698 1.82506 4.98429 2.25328 4.55859C3.29671 3.52453 4.55718 3 6 3C7.44281 3 8.70328 3.52453 9.74671 4.55859C10.1757 4.98422 10.5407 5.46973 10.8305 6C10.4925 6.63094 9.02015 9 6 9ZM6 3.75C5.55499 3.75 5.11997 3.88196 4.74996 4.12919C4.37995 4.37643 4.09156 4.72783 3.92127 5.13896C3.75097 5.5501 3.70641 6.0025 3.79323 6.43895C3.88005 6.87541 4.09434 7.27632 4.40901 7.59099C4.72367 7.90566 5.12459 8.11995 5.56104 8.20677C5.9975 8.29358 6.4499 8.24903 6.86103 8.07873C7.27217 7.90843 7.62357 7.62004 7.8708 7.25003C8.11804 6.88002 8.25 6.44501 8.25 6C8.24938 5.40345 8.01212 4.83152 7.5903 4.4097C7.16848 3.98787 6.59654 3.75062 6 3.75ZM6 7.5C5.70332 7.5 5.41331 7.41203 5.16664 7.2472C4.91997 7.08238 4.72771 6.84811 4.61418 6.57403C4.50064 6.29994 4.47094 5.99834 4.52882 5.70736C4.5867 5.41639 4.72956 5.14912 4.93933 4.93934C5.14911 4.72956 5.41639 4.5867 5.70736 4.52882C5.99833 4.47094 6.29993 4.50065 6.57402 4.61418C6.84811 4.72771 7.08238 4.91997 7.2472 5.16664C7.41202 5.41332 7.5 5.70333 7.5 6C7.5 6.39782 7.34196 6.77936 7.06066 7.06066C6.77935 7.34196 6.39782 7.5 6 7.5Z" fill="#232222" fill-opacity="0.35"/>
</svg>
