<svg width="20" height="21" viewBox="0 0 20 21" fill="none" xmlns="http://www.w3.org/2000/svg">
<circle cx="10" cy="10.5" r="9.5" fill="white" stroke="#494949"/>
<path d="M9.99951 6.05545C9.48381 6.05545 8.98924 6.26031 8.62458 6.62496C8.25993 6.98962 8.05507 7.48419 8.05507 7.99989C8.05507 8.51559 8.25993 9.01017 8.62458 9.37482C8.98924 9.73947 9.48381 9.94433 9.99951 9.94433C10.5152 9.94433 11.0098 9.73947 11.3744 9.37482C11.7391 9.01017 11.944 8.51559 11.944 7.99989C11.944 7.48419 11.7391 6.98962 11.3744 6.62496C11.0098 6.26031 10.5152 6.05545 9.99951 6.05545ZM6.94396 7.99989C6.94396 7.18951 7.26588 6.41232 7.83891 5.83929C8.41194 5.26626 9.18913 4.94434 9.99951 4.94434C10.8099 4.94434 11.5871 5.26626 12.1601 5.83929C12.7331 6.41232 13.0551 7.18951 13.0551 7.99989C13.0551 8.81027 12.7331 9.58747 12.1601 10.1605C11.5871 10.7335 10.8099 11.0554 9.99951 11.0554C9.18913 11.0554 8.41194 10.7335 7.83891 10.1605C7.26588 9.58747 6.94396 8.81027 6.94396 7.99989ZM4.99951 14.3888C4.99951 13.6521 5.29217 12.9455 5.8131 12.4246C6.33404 11.9037 7.04058 11.611 7.77729 11.611H12.2217C12.9584 11.611 13.665 11.9037 14.1859 12.4246C14.7069 12.9455 14.9995 13.6521 14.9995 14.3888V16.0554H4.99951V14.3888ZM7.77729 12.7221C7.33526 12.7221 6.91134 12.8977 6.59878 13.2103C6.28622 13.5228 6.11062 13.9468 6.11062 14.3888V14.9443H13.8884V14.3888C13.8884 13.9468 13.7128 13.5228 13.4002 13.2103C13.0877 12.8977 12.6638 12.7221 12.2217 12.7221H7.77729Z" fill="#494949"/>
</svg>
