<svg width="15" height="15" viewBox="0 0 15 15" fill="none" xmlns="http://www.w3.org/2000/svg">
<path d="M10.9388 9.14629H10.2475L10.0025 8.92182C10.5493 8.31822 10.949 7.60723 11.1729 6.83974C11.3967 6.07225 11.4393 5.26723 11.2975 4.48229C10.8863 2.17108 8.85626 0.325432 6.40626 0.0427655C5.54492 -0.0607688 4.67007 0.0242854 3.84866 0.29142C3.02724 0.558554 2.28102 1.00069 1.66711 1.58399C1.0532 2.16729 0.587865 2.8763 0.306713 3.65676C0.0255599 4.43722 -0.0639578 5.26845 0.0450097 6.08684C0.34251 8.41468 2.28501 10.3435 4.71751 10.7342C5.54364 10.8689 6.39091 10.8285 7.19867 10.6158C8.00644 10.4031 8.75473 10.0233 9.39001 9.50378L9.62626 9.73656V10.3933L13.345 13.9267C13.7038 14.2675 14.29 14.2675 14.6488 13.9267C15.0075 13.5858 15.0075 13.0288 14.6488 12.6879L10.9388 9.14629ZM5.68876 9.14629C3.51001 9.14629 1.75126 7.47523 1.75126 5.40511C1.75126 3.335 3.51001 1.66394 5.68876 1.66394C7.86751 1.66394 9.62626 3.335 9.62626 5.40511C9.62626 7.47523 7.86751 9.14629 5.68876 9.14629Z" fill="#232222" fill-opacity="0.35"/>
</svg>
