<svg width="20" height="21" viewBox="0 0 20 21" fill="none" xmlns="http://www.w3.org/2000/svg">
<path d="M17.0221 8.48723C17.0025 8.40506 16.9818 8.32357 16.96 8.2428C16.31 8.40799 15.63 8.4961 14.92 8.4961C13.466 8.49781 12.0329 8.11453 10.7415 7.37855C9.61837 6.73842 8.63107 5.84781 7.8413 4.7659C7.88516 4.65909 7.92747 4.55133 7.96819 4.44269L7.5 4.2672L7.07903 4.53698C7.14184 4.63499 7.20613 4.73173 7.27186 4.82717C6.3326 6.95745 4.74179 8.66468 2.77 9.64142L17.0221 8.48723ZM17.0221 8.48723L17.0832 8.7274C17.0809 8.72798 17.0786 8.72856 17.0763 8.72914M17.1184 13.842L17.1627 13.7837L17.1883 13.715C17.5593 12.7228 17.76 11.6613 17.76 10.5004C17.76 9.6613 17.6436 8.85768 17.4428 8.11266L17.3145 7.63682L16.8368 7.75821C16.2268 7.91324 15.5882 7.9961 14.92 7.9961L14.9194 7.9961C13.5544 7.99771 12.2066 7.63804 10.9891 6.94414C9.77124 6.25004 8.71781 5.24079 7.92097 3.99741L7.38224 3.15679L7.03181 4.09171C6.17697 6.37237 4.56786 8.19285 2.54806 9.19338L2.31292 9.30986L2.27519 9.56953C2.22996 9.88088 2.22998 10.2087 2.23 10.4841L2.23 10.5004C2.23 11.6111 2.42861 12.7119 2.8154 13.7403C3.20221 14.7687 3.77025 15.7061 4.48917 16.4978C5.94177 18.0975 7.92285 19.0067 10 19.0067C10.9547 19.0067 11.8771 18.8122 12.7281 18.4605C12.893 18.8116 13.0222 19.0923 13.1172 19.3033C11.7373 19.7816 10.6984 20 10 20C7.72774 20 5.55062 19.0185 3.94115 17.2356L3.93937 17.2336C2.95868 16.1587 2.22689 14.8333 1.81094 13.3702L1.70767 13.0069H1.33H0.5V8.9961H1.09H1.50535L1.58152 8.58779C1.89676 6.89792 2.62073 5.33832 3.6718 4.07305C4.72259 2.8081 6.05985 1.88571 7.53841 1.39711C9.01645 0.908681 10.5855 0.870162 12.0812 1.28516C13.5773 1.70029 14.9497 2.5554 16.0499 3.76644L16.0504 3.76697C17.2443 5.07738 18.0635 6.75353 18.3981 8.58593L18.473 8.9961H18.89H19.5V13.2408L16.1975 16.5814L11.58 16.0058V15.1082H15.91H16.1584L16.3084 14.9103L17.1184 13.842Z" stroke="#494949"/>
</svg>
