<svg width="39" height="39" viewBox="0 0 39 39" fill="none" xmlns="http://www.w3.org/2000/svg">
<circle cx="19.5" cy="19.5" r="19.5" fill="#EDEDED"/>
<path d="M10.4792 19L13.5417 22.0625C13.6458 22.1667 13.6962 22.2882 13.6929 22.4271C13.6896 22.566 13.6357 22.6875 13.5313 22.7917C13.4268 22.8958 13.3053 22.9479 13.1667 22.9479C13.0281 22.9479 12.9065 22.8958 12.8021 22.7917L9.59375 19.5937C9.51042 19.5104 9.44792 19.4167 9.40625 19.3125C9.36458 19.2083 9.34375 19.1042 9.34375 19C9.34375 18.8958 9.36458 18.7917 9.40625 18.6875C9.44792 18.5833 9.51042 18.4896 9.59375 18.4062L12.8021 15.1979C12.9063 15.0937 13.0296 15.0433 13.1721 15.0467C13.3146 15.05 13.4378 15.1039 13.5417 15.2083C13.6456 15.3128 13.6976 15.4343 13.6979 15.5729C13.6982 15.7115 13.6461 15.8331 13.5417 15.9375L10.4792 19Z" fill="#494949"/>
<path d="M27.5208 19L24.4583 22.0625C24.3542 22.1667 24.3038 22.2882 24.3071 22.4271C24.3104 22.566 24.3643 22.6875 24.4687 22.7917C24.5732 22.8958 24.6947 22.9479 24.8333 22.9479C24.9719 22.9479 25.0935 22.8958 25.1979 22.7917L28.4062 19.5937C28.4896 19.5104 28.5521 19.4167 28.5937 19.3125C28.6354 19.2083 28.6562 19.1042 28.6562 19C28.6562 18.8958 28.6354 18.7917 28.5937 18.6875C28.5521 18.5833 28.4896 18.4896 28.4062 18.4062L25.1979 15.1979C25.0937 15.0937 24.9704 15.0433 24.8279 15.0467C24.6854 15.05 24.5622 15.1039 24.4583 15.2083C24.3544 15.3128 24.3024 15.4343 24.3021 15.5729C24.3018 15.7115 24.3539 15.8331 24.4583 15.9375L27.5208 19Z" fill="#494949"/>
</svg>
