<svg width="142" height="97" viewBox="0 0 142 97" fill="none" xmlns="http://www.w3.org/2000/svg">
<path d="M32.3359 61.625H34.2891V69.2266C34.2891 70.0911 34.1016 70.8151 33.7266 71.3984C33.3516 71.9818 32.8411 72.4219 32.1953 72.7188C31.5547 73.0104 30.8385 73.1562 30.0469 73.1562C29.2292 73.1562 28.5 73.0104 27.8594 72.7188C27.2188 72.4219 26.7135 71.9818 26.3438 71.3984C25.9792 70.8151 25.7969 70.0911 25.7969 69.2266V61.625H27.75V69.2266C27.75 69.7734 27.8438 70.224 28.0312 70.5781C28.2188 70.9271 28.4844 71.1849 28.8281 71.3516C29.1719 71.5182 29.5781 71.6016 30.0469 71.6016C30.5156 71.6016 30.9193 71.5182 31.2578 71.3516C31.6016 71.1849 31.8672 70.9271 32.0547 70.5781C32.2422 70.224 32.3359 69.7734 32.3359 69.2266V61.625ZM38.125 66.1719V76.25H36.2422V64.5469H37.9766L38.125 66.1719ZM43.6328 68.6953V68.8594C43.6328 69.474 43.5599 70.0443 43.4141 70.5703C43.2734 71.0911 43.0625 71.5469 42.7812 71.9375C42.5052 72.3229 42.1641 72.6224 41.7578 72.8359C41.3516 73.0495 40.8828 73.1562 40.3516 73.1562C39.8255 73.1562 39.3646 73.0599 38.9688 72.8672C38.5781 72.6693 38.2474 72.3906 37.9766 72.0312C37.7057 71.6719 37.487 71.25 37.3203 70.7656C37.1589 70.276 37.0443 69.7396 36.9766 69.1562V68.5234C37.0443 67.9036 37.1589 67.3411 37.3203 66.8359C37.487 66.3307 37.7057 65.8958 37.9766 65.5312C38.2474 65.1667 38.5781 64.8854 38.9688 64.6875C39.3594 64.4896 39.8151 64.3906 40.3359 64.3906C40.8672 64.3906 41.3385 64.4948 41.75 64.7031C42.1615 64.9062 42.5078 65.1979 42.7891 65.5781C43.0703 65.9531 43.2812 66.4062 43.4219 66.9375C43.5625 67.4635 43.6328 68.0495 43.6328 68.6953ZM41.75 68.8594V68.6953C41.75 68.3047 41.7135 67.9427 41.6406 67.6094C41.5677 67.2708 41.4531 66.974 41.2969 66.7188C41.1406 66.4635 40.9401 66.2656 40.6953 66.125C40.4557 65.9792 40.1667 65.9062 39.8281 65.9062C39.4948 65.9062 39.2083 65.9635 38.9688 66.0781C38.7292 66.1875 38.5286 66.3411 38.3672 66.5391C38.2057 66.737 38.0807 66.9688 37.9922 67.2344C37.9036 67.4948 37.8411 67.7786 37.8047 68.0859V69.6016C37.8672 69.9766 37.974 70.3203 38.125 70.6328C38.276 70.9453 38.4896 71.1953 38.7656 71.3828C39.0469 71.5651 39.4062 71.6562 39.8438 71.6562C40.1823 71.6562 40.4714 71.5833 40.7109 71.4375C40.9505 71.2917 41.1458 71.0911 41.2969 70.8359C41.4531 70.5755 41.5677 70.276 41.6406 69.9375C41.7135 69.599 41.75 69.2396 41.75 68.8594ZM47.25 61V73H45.3594V61H47.25ZM48.9531 68.8672V68.6875C48.9531 68.0781 49.0417 67.513 49.2188 66.9922C49.3958 66.4661 49.651 66.0104 49.9844 65.625C50.3229 65.2344 50.7344 64.9323 51.2188 64.7188C51.7083 64.5 52.2604 64.3906 52.875 64.3906C53.4948 64.3906 54.0469 64.5 54.5312 64.7188C55.0208 64.9323 55.4349 65.2344 55.7734 65.625C56.112 66.0104 56.3698 66.4661 56.5469 66.9922C56.724 67.513 56.8125 68.0781 56.8125 68.6875V68.8672C56.8125 69.4766 56.724 70.0417 56.5469 70.5625C56.3698 71.0833 56.112 71.5391 55.7734 71.9297C55.4349 72.3151 55.0234 72.6172 54.5391 72.8359C54.0547 73.0495 53.5052 73.1562 52.8906 73.1562C52.2708 73.1562 51.7161 73.0495 51.2266 72.8359C50.7422 72.6172 50.3307 72.3151 49.9922 71.9297C49.6536 71.5391 49.3958 71.0833 49.2188 70.5625C49.0417 70.0417 48.9531 69.4766 48.9531 68.8672ZM50.8359 68.6875V68.8672C50.8359 69.2474 50.875 69.6068 50.9531 69.9453C51.0312 70.2839 51.1536 70.5807 51.3203 70.8359C51.487 71.0911 51.7005 71.2917 51.9609 71.4375C52.2214 71.5833 52.5312 71.6562 52.8906 71.6562C53.2396 71.6562 53.5417 71.5833 53.7969 71.4375C54.0573 71.2917 54.2708 71.0911 54.4375 70.8359C54.6042 70.5807 54.7266 70.2839 54.8047 69.9453C54.888 69.6068 54.9297 69.2474 54.9297 68.8672V68.6875C54.9297 68.3125 54.888 67.9583 54.8047 67.625C54.7266 67.2865 54.6016 66.987 54.4297 66.7266C54.263 66.4661 54.0495 66.263 53.7891 66.1172C53.5339 65.9661 53.2292 65.8906 52.875 65.8906C52.5208 65.8906 52.2135 65.9661 51.9531 66.1172C51.6979 66.263 51.487 66.4661 51.3203 66.7266C51.1536 66.987 51.0312 67.2865 50.9531 67.625C50.875 67.9583 50.8359 68.3125 50.8359 68.6875ZM63.1562 71.3047V67.2734C63.1562 66.9714 63.1016 66.7109 62.9922 66.4922C62.8828 66.2734 62.7161 66.1042 62.4922 65.9844C62.2734 65.8646 61.9974 65.8047 61.6641 65.8047C61.3568 65.8047 61.0911 65.8568 60.8672 65.9609C60.6432 66.0651 60.4688 66.2057 60.3438 66.3828C60.2188 66.5599 60.1562 66.7604 60.1562 66.9844H58.2812C58.2812 66.651 58.362 66.3281 58.5234 66.0156C58.6849 65.7031 58.9193 65.4245 59.2266 65.1797C59.5339 64.9349 59.901 64.7422 60.3281 64.6016C60.7552 64.4609 61.2344 64.3906 61.7656 64.3906C62.401 64.3906 62.9635 64.4974 63.4531 64.7109C63.9479 64.9245 64.3359 65.2474 64.6172 65.6797C64.9036 66.1068 65.0469 66.6432 65.0469 67.2891V71.0469C65.0469 71.4323 65.0729 71.7786 65.125 72.0859C65.1823 72.388 65.263 72.651 65.3672 72.875V73H63.4375C63.349 72.7969 63.2786 72.5391 63.2266 72.2266C63.1797 71.9089 63.1562 71.6016 63.1562 71.3047ZM63.4297 67.8594L63.4453 69.0234H62.0938C61.7448 69.0234 61.4375 69.0573 61.1719 69.125C60.9062 69.1875 60.6849 69.2812 60.5078 69.4062C60.3307 69.5312 60.1979 69.6823 60.1094 69.8594C60.0208 70.0365 59.9766 70.237 59.9766 70.4609C59.9766 70.6849 60.0286 70.8906 60.1328 71.0781C60.237 71.2604 60.388 71.4036 60.5859 71.5078C60.7891 71.612 61.0339 71.6641 61.3203 71.6641C61.7057 71.6641 62.0417 71.5859 62.3281 71.4297C62.6198 71.2682 62.849 71.0729 63.0156 70.8438C63.1823 70.6094 63.2708 70.388 63.2812 70.1797L63.8906 71.0156C63.8281 71.2292 63.7214 71.4583 63.5703 71.7031C63.4193 71.9479 63.2214 72.1823 62.9766 72.4062C62.737 72.625 62.4479 72.8047 62.1094 72.9453C61.776 73.0859 61.3906 73.1562 60.9531 73.1562C60.401 73.1562 59.9089 73.0469 59.4766 72.8281C59.0443 72.6042 58.7057 72.3047 58.4609 71.9297C58.2161 71.5495 58.0938 71.1198 58.0938 70.6406C58.0938 70.1927 58.1771 69.7969 58.3438 69.4531C58.5156 69.1042 58.7656 68.8125 59.0938 68.5781C59.4271 68.3438 59.8333 68.1667 60.3125 68.0469C60.7917 67.9219 61.3385 67.8594 61.9531 67.8594H63.4297ZM72.1719 71.25V61H74.0625V73H72.3516L72.1719 71.25ZM66.6719 68.8672V68.7031C66.6719 68.0625 66.7474 67.4792 66.8984 66.9531C67.0495 66.4219 67.2682 65.9661 67.5547 65.5859C67.8411 65.2005 68.1901 64.9062 68.6016 64.7031C69.013 64.4948 69.4766 64.3906 69.9922 64.3906C70.5026 64.3906 70.9505 64.4896 71.3359 64.6875C71.7214 64.8854 72.0495 65.1693 72.3203 65.5391C72.5911 65.9036 72.8073 66.3411 72.9688 66.8516C73.1302 67.3568 73.2448 67.9193 73.3125 68.5391V69.0625C73.2448 69.6667 73.1302 70.2188 72.9688 70.7188C72.8073 71.2188 72.5911 71.651 72.3203 72.0156C72.0495 72.3802 71.7188 72.6615 71.3281 72.8594C70.9427 73.0573 70.4922 73.1562 69.9766 73.1562C69.4661 73.1562 69.0052 73.0495 68.5938 72.8359C68.1875 72.6224 67.8411 72.3229 67.5547 71.9375C67.2682 71.5521 67.0495 71.099 66.8984 70.5781C66.7474 70.0521 66.6719 69.4818 66.6719 68.8672ZM68.5547 68.7031V68.8672C68.5547 69.2526 68.5885 69.612 68.6562 69.9453C68.7292 70.2786 68.8411 70.5729 68.9922 70.8281C69.1432 71.0781 69.3385 71.276 69.5781 71.4219C69.8229 71.5625 70.1146 71.6328 70.4531 71.6328C70.8802 71.6328 71.2318 71.5391 71.5078 71.3516C71.7839 71.1641 72 70.9115 72.1562 70.5938C72.3177 70.2708 72.4271 69.9115 72.4844 69.5156V68.1016C72.4531 67.7943 72.388 67.5078 72.2891 67.2422C72.1953 66.9766 72.0677 66.7448 71.9062 66.5469C71.7448 66.3438 71.5443 66.1875 71.3047 66.0781C71.0703 65.9635 70.7917 65.9062 70.4688 65.9062C70.125 65.9062 69.8333 65.9792 69.5938 66.125C69.3542 66.2708 69.1562 66.4714 69 66.7266C68.849 66.9818 68.737 67.2786 68.6641 67.6172C68.5911 67.9557 68.5547 68.3177 68.5547 68.7031ZM84.7812 71.3047V67.2734C84.7812 66.9714 84.7266 66.7109 84.6172 66.4922C84.5078 66.2734 84.3411 66.1042 84.1172 65.9844C83.8984 65.8646 83.6224 65.8047 83.2891 65.8047C82.9818 65.8047 82.7161 65.8568 82.4922 65.9609C82.2682 66.0651 82.0938 66.2057 81.9688 66.3828C81.8438 66.5599 81.7812 66.7604 81.7812 66.9844H79.9062C79.9062 66.651 79.987 66.3281 80.1484 66.0156C80.3099 65.7031 80.5443 65.4245 80.8516 65.1797C81.1589 64.9349 81.526 64.7422 81.9531 64.6016C82.3802 64.4609 82.8594 64.3906 83.3906 64.3906C84.026 64.3906 84.5885 64.4974 85.0781 64.7109C85.5729 64.9245 85.9609 65.2474 86.2422 65.6797C86.5286 66.1068 86.6719 66.6432 86.6719 67.2891V71.0469C86.6719 71.4323 86.6979 71.7786 86.75 72.0859C86.8073 72.388 86.888 72.651 86.9922 72.875V73H85.0625C84.974 72.7969 84.9036 72.5391 84.8516 72.2266C84.8047 71.9089 84.7812 71.6016 84.7812 71.3047ZM85.0547 67.8594L85.0703 69.0234H83.7188C83.3698 69.0234 83.0625 69.0573 82.7969 69.125C82.5312 69.1875 82.3099 69.2812 82.1328 69.4062C81.9557 69.5312 81.8229 69.6823 81.7344 69.8594C81.6458 70.0365 81.6016 70.237 81.6016 70.4609C81.6016 70.6849 81.6536 70.8906 81.7578 71.0781C81.862 71.2604 82.013 71.4036 82.2109 71.5078C82.4141 71.612 82.6589 71.6641 82.9453 71.6641C83.3307 71.6641 83.6667 71.5859 83.9531 71.4297C84.2448 71.2682 84.474 71.0729 84.6406 70.8438C84.8073 70.6094 84.8958 70.388 84.9062 70.1797L85.5156 71.0156C85.4531 71.2292 85.3464 71.4583 85.1953 71.7031C85.0443 71.9479 84.8464 72.1823 84.6016 72.4062C84.362 72.625 84.0729 72.8047 83.7344 72.9453C83.401 73.0859 83.0156 73.1562 82.5781 73.1562C82.026 73.1562 81.5339 73.0469 81.1016 72.8281C80.6693 72.6042 80.3307 72.3047 80.0859 71.9297C79.8411 71.5495 79.7188 71.1198 79.7188 70.6406C79.7188 70.1927 79.8021 69.7969 79.9688 69.4531C80.1406 69.1042 80.3906 68.8125 80.7188 68.5781C81.0521 68.3438 81.4583 68.1667 81.9375 68.0469C82.4167 67.9219 82.9635 67.8594 83.5781 67.8594H85.0547ZM94.7734 61.625V73H92.8125V61.625H94.7734ZM99.4141 66.6016V68.1562H94.2734V66.6016H99.4141ZM100.062 61.625V63.1875H94.2734V61.625H100.062ZM103.453 64.5469V73H101.562V64.5469H103.453ZM101.438 62.3281C101.438 62.0417 101.531 61.8047 101.719 61.6172C101.911 61.4245 102.177 61.3281 102.516 61.3281C102.849 61.3281 103.112 61.4245 103.305 61.6172C103.497 61.8047 103.594 62.0417 103.594 62.3281C103.594 62.6094 103.497 62.8438 103.305 63.0312C103.112 63.2188 102.849 63.3125 102.516 63.3125C102.177 63.3125 101.911 63.2188 101.719 63.0312C101.531 62.8438 101.438 62.6094 101.438 62.3281ZM107.531 61V73H105.641V61H107.531ZM113.32 73.1562C112.695 73.1562 112.13 73.0547 111.625 72.8516C111.125 72.6432 110.698 72.3542 110.344 71.9844C109.995 71.6146 109.727 71.1797 109.539 70.6797C109.352 70.1797 109.258 69.6406 109.258 69.0625V68.75C109.258 68.0885 109.354 67.4896 109.547 66.9531C109.74 66.4167 110.008 65.9583 110.352 65.5781C110.695 65.1927 111.102 64.8984 111.57 64.6953C112.039 64.4922 112.547 64.3906 113.094 64.3906C113.698 64.3906 114.227 64.4922 114.68 64.6953C115.133 64.8984 115.508 65.1849 115.805 65.5547C116.107 65.9193 116.331 66.3542 116.477 66.8594C116.628 67.3646 116.703 67.9219 116.703 68.5312V69.3359H110.172V67.9844H114.844V67.8359C114.833 67.4974 114.766 67.1797 114.641 66.8828C114.521 66.5859 114.336 66.3464 114.086 66.1641C113.836 65.9818 113.503 65.8906 113.086 65.8906C112.773 65.8906 112.495 65.9583 112.25 66.0938C112.01 66.224 111.81 66.4141 111.648 66.6641C111.487 66.9141 111.362 67.2161 111.273 67.5703C111.19 67.9193 111.148 68.3125 111.148 68.75V69.0625C111.148 69.4323 111.198 69.776 111.297 70.0938C111.401 70.4062 111.552 70.6797 111.75 70.9141C111.948 71.1484 112.188 71.3333 112.469 71.4688C112.75 71.599 113.07 71.6641 113.43 71.6641C113.883 71.6641 114.286 71.5729 114.641 71.3906C114.995 71.2083 115.302 70.9505 115.562 70.6172L116.555 71.5781C116.372 71.8438 116.135 72.099 115.844 72.3438C115.552 72.5833 115.195 72.7786 114.773 72.9297C114.357 73.0807 113.872 73.1562 113.32 73.1562Z" fill="#494949"/>
<path d="M53.8333 35.9167V40.0833C53.8333 41.1884 54.2722 42.2482 55.0536 43.0296C55.835 43.811 56.8948 44.25 57.9999 44.25H82.9999C84.105 44.25 85.1648 43.811 85.9462 43.0296C86.7276 42.2482 87.1666 41.1884 87.1666 40.0833V35.9167M60.0833 19.25L70.4999 8.83334M70.4999 8.83334L80.9166 19.25M70.4999 8.83334V33.8333" stroke="#232222" stroke-opacity="0.35" stroke-width="2" stroke-linecap="round" stroke-linejoin="round"/>
<path d="M4.2417 91.5H2.31201L2.32471 90.5034H4.2417C4.90186 90.5034 5.45199 90.3659 5.89209 90.0908C6.33219 89.8115 6.66227 89.4222 6.88232 88.9229C7.10661 88.4193 7.21875 87.8311 7.21875 87.1582V86.5933C7.21875 86.0643 7.15527 85.5946 7.02832 85.1841C6.90137 84.7694 6.71517 84.4202 6.46973 84.1367C6.22428 83.849 5.92383 83.631 5.56836 83.4829C5.21712 83.3348 4.81299 83.2607 4.35596 83.2607H2.27393V82.2578H4.35596C4.9611 82.2578 5.51335 82.3594 6.0127 82.5625C6.51204 82.7614 6.94157 83.0513 7.30127 83.4321C7.6652 83.8088 7.9445 84.2658 8.13916 84.8032C8.33382 85.3364 8.43115 85.9373 8.43115 86.606V87.1582C8.43115 87.8268 8.33382 88.4299 8.13916 88.9673C7.9445 89.5005 7.66309 89.9554 7.29492 90.332C6.93099 90.7087 6.49089 90.9985 5.97461 91.2017C5.46257 91.4006 4.88493 91.5 4.2417 91.5ZM2.96582 82.2578V91.5H1.74072V82.2578H2.96582ZM11.2686 85.7109V91.5H10.0942V84.6318H11.2368L11.2686 85.7109ZM13.4141 84.5938L13.4077 85.6855C13.3104 85.6644 13.2173 85.6517 13.1284 85.6475C13.0438 85.639 12.9465 85.6348 12.8364 85.6348C12.5656 85.6348 12.3265 85.6771 12.1191 85.7617C11.9118 85.8464 11.7362 85.9648 11.5923 86.1172C11.4484 86.2695 11.3341 86.4515 11.2495 86.6631C11.1691 86.8704 11.1162 87.099 11.0908 87.3486L10.7607 87.5391C10.7607 87.1243 10.8009 86.735 10.8813 86.3711C10.966 86.0072 11.0951 85.6855 11.2686 85.4062C11.4421 85.1227 11.6621 84.9027 11.9287 84.7461C12.1995 84.5853 12.5212 84.5049 12.8936 84.5049C12.9782 84.5049 13.0755 84.5155 13.1855 84.5366C13.2956 84.5535 13.3717 84.5726 13.4141 84.5938ZM18.2954 90.3257V86.79C18.2954 86.5192 18.2404 86.2843 18.1304 86.0854C18.0246 85.8823 17.8638 85.7257 17.6479 85.6157C17.4321 85.5057 17.1655 85.4507 16.8481 85.4507C16.5519 85.4507 16.2917 85.5015 16.0674 85.603C15.8473 85.7046 15.6738 85.8379 15.5469 86.0029C15.4242 86.168 15.3628 86.3457 15.3628 86.5361H14.1885C14.1885 86.2907 14.252 86.0474 14.3789 85.8062C14.5059 85.5649 14.6878 85.347 14.9248 85.1523C15.166 84.9535 15.4538 84.7969 15.7881 84.6826C16.1266 84.5641 16.5033 84.5049 16.918 84.5049C17.4173 84.5049 17.8574 84.5895 18.2383 84.7588C18.6234 84.9281 18.9238 85.1841 19.1396 85.5269C19.3597 85.8654 19.4697 86.2907 19.4697 86.8027V90.002C19.4697 90.2305 19.4888 90.4738 19.5269 90.7319C19.5692 90.9901 19.6305 91.2122 19.7109 91.3984V91.5H18.4858C18.4266 91.3646 18.38 91.1847 18.3462 90.9604C18.3123 90.7319 18.2954 90.5203 18.2954 90.3257ZM18.4985 87.3359L18.5112 88.1611H17.3242C16.9899 88.1611 16.6916 88.1886 16.4292 88.2437C16.1668 88.2944 15.9468 88.3727 15.769 88.4785C15.5913 88.5843 15.4559 88.7176 15.3628 88.8784C15.2697 89.035 15.2231 89.2191 15.2231 89.4307C15.2231 89.6465 15.2718 89.8433 15.3691 90.021C15.4665 90.1987 15.6125 90.3405 15.8071 90.4463C16.006 90.5479 16.2493 90.5986 16.5371 90.5986C16.8968 90.5986 17.2142 90.5225 17.4893 90.3701C17.7643 90.2178 17.9823 90.0316 18.1431 89.8115C18.3081 89.5915 18.397 89.3778 18.4097 89.1704L18.9111 89.7354C18.8815 89.9131 18.8011 90.1099 18.6699 90.3257C18.5387 90.5415 18.3631 90.7489 18.1431 90.9478C17.9272 91.1424 17.6691 91.3053 17.3687 91.4365C17.0724 91.5635 16.7381 91.627 16.3657 91.627C15.9002 91.627 15.4919 91.536 15.1406 91.354C14.7936 91.172 14.5228 90.9287 14.3281 90.624C14.1377 90.3151 14.0425 89.9702 14.0425 89.5894C14.0425 89.2212 14.1144 88.8975 14.2583 88.6182C14.4022 88.3346 14.6095 88.0998 14.8804 87.9136C15.1512 87.7231 15.4771 87.5793 15.8579 87.4819C16.2388 87.3846 16.6641 87.3359 17.1338 87.3359H18.4985ZM25.7666 84.6318H26.833V91.354C26.833 91.9591 26.7103 92.4754 26.4648 92.9028C26.2194 93.3302 25.8766 93.654 25.4365 93.874C25.0007 94.0983 24.4971 94.2104 23.9258 94.2104C23.6888 94.2104 23.4095 94.1724 23.0879 94.0962C22.7705 94.0243 22.4574 93.8994 22.1484 93.7217C21.8438 93.5482 21.5877 93.3133 21.3804 93.0171L21.9961 92.3188C22.2839 92.6659 22.5843 92.9071 22.8975 93.0425C23.2148 93.1779 23.528 93.2456 23.8369 93.2456C24.2093 93.2456 24.5309 93.1758 24.8018 93.0361C25.0726 92.8965 25.2821 92.6891 25.4302 92.4141C25.5825 92.1432 25.6587 91.8089 25.6587 91.4111V86.1426L25.7666 84.6318ZM21.0376 88.1421V88.0088C21.0376 87.484 21.099 87.008 21.2217 86.5806C21.3486 86.1489 21.5285 85.7786 21.7612 85.4697C21.9982 85.1608 22.2839 84.9238 22.6182 84.7588C22.9525 84.5895 23.3291 84.5049 23.748 84.5049C24.1797 84.5049 24.5563 84.5811 24.8779 84.7334C25.2038 84.8815 25.4788 85.0994 25.7031 85.3872C25.9316 85.6707 26.1115 86.0135 26.2427 86.4155C26.3739 86.8175 26.4648 87.2725 26.5156 87.7803V88.3643C26.4691 88.8678 26.3781 89.3206 26.2427 89.7227C26.1115 90.1247 25.9316 90.4674 25.7031 90.751C25.4788 91.0345 25.2038 91.2524 24.8779 91.4048C24.5521 91.5529 24.1712 91.627 23.7354 91.627C23.3249 91.627 22.9525 91.5402 22.6182 91.3667C22.2881 91.1932 22.0046 90.9499 21.7676 90.6367C21.5306 90.3236 21.3486 89.9554 21.2217 89.5322C21.099 89.1048 21.0376 88.6414 21.0376 88.1421ZM22.2119 88.0088V88.1421C22.2119 88.4849 22.2458 88.8065 22.3135 89.1069C22.3854 89.4074 22.4933 89.6719 22.6372 89.9004C22.7853 90.1289 22.9736 90.3088 23.2021 90.4399C23.4307 90.5669 23.7036 90.6304 24.021 90.6304C24.4103 90.6304 24.7319 90.5479 24.9858 90.3828C25.2397 90.2178 25.4408 89.9998 25.5889 89.729C25.7412 89.4582 25.8597 89.1641 25.9443 88.8467V87.3169C25.8978 87.0841 25.8258 86.8599 25.7285 86.644C25.6354 86.424 25.5127 86.2293 25.3604 86.0601C25.2122 85.8866 25.0282 85.749 24.8081 85.6475C24.5881 85.5459 24.3299 85.4951 24.0337 85.4951C23.7121 85.4951 23.4349 85.5628 23.2021 85.6982C22.9736 85.8294 22.7853 86.0114 22.6372 86.2441C22.4933 86.4727 22.3854 86.7393 22.3135 87.0439C22.2458 87.3444 22.2119 87.666 22.2119 88.0088ZM35.8911 90.3257V86.79C35.8911 86.5192 35.8361 86.2843 35.7261 86.0854C35.6203 85.8823 35.4595 85.7257 35.2437 85.6157C35.0278 85.5057 34.7612 85.4507 34.4438 85.4507C34.1476 85.4507 33.8874 85.5015 33.6631 85.603C33.443 85.7046 33.2695 85.8379 33.1426 86.0029C33.0199 86.168 32.9585 86.3457 32.9585 86.5361H31.7842C31.7842 86.2907 31.8477 86.0474 31.9746 85.8062C32.1016 85.5649 32.2835 85.347 32.5205 85.1523C32.7617 84.9535 33.0495 84.7969 33.3838 84.6826C33.7223 84.5641 34.099 84.5049 34.5137 84.5049C35.013 84.5049 35.4531 84.5895 35.834 84.7588C36.2191 84.9281 36.5195 85.1841 36.7354 85.5269C36.9554 85.8654 37.0654 86.2907 37.0654 86.8027V90.002C37.0654 90.2305 37.0845 90.4738 37.1226 90.7319C37.1649 90.9901 37.2262 91.2122 37.3066 91.3984V91.5H36.0815C36.0223 91.3646 35.9757 91.1847 35.9419 90.9604C35.908 90.7319 35.8911 90.5203 35.8911 90.3257ZM36.0942 87.3359L36.1069 88.1611H34.9199C34.5856 88.1611 34.2873 88.1886 34.0249 88.2437C33.7625 88.2944 33.5425 88.3727 33.3647 88.4785C33.187 88.5843 33.0516 88.7176 32.9585 88.8784C32.8654 89.035 32.8188 89.2191 32.8188 89.4307C32.8188 89.6465 32.8675 89.8433 32.9648 90.021C33.0622 90.1987 33.2082 90.3405 33.4028 90.4463C33.6017 90.5479 33.8451 90.5986 34.1328 90.5986C34.4925 90.5986 34.8099 90.5225 35.085 90.3701C35.36 90.2178 35.578 90.0316 35.7388 89.8115C35.9038 89.5915 35.9927 89.3778 36.0054 89.1704L36.5068 89.7354C36.4772 89.9131 36.3968 90.1099 36.2656 90.3257C36.1344 90.5415 35.9588 90.7489 35.7388 90.9478C35.5229 91.1424 35.2648 91.3053 34.9644 91.4365C34.6681 91.5635 34.3338 91.627 33.9614 91.627C33.4959 91.627 33.0876 91.536 32.7363 91.354C32.3893 91.172 32.1185 90.9287 31.9238 90.624C31.7334 90.3151 31.6382 89.9702 31.6382 89.5894C31.6382 89.2212 31.7101 88.8975 31.854 88.6182C31.9979 88.3346 32.2052 88.0998 32.4761 87.9136C32.7469 87.7231 33.0728 87.5793 33.4536 87.4819C33.8345 87.3846 34.2598 87.3359 34.7295 87.3359H36.0942ZM40.0869 86.0981V91.5H38.9126V84.6318H40.0234L40.0869 86.0981ZM39.8076 87.8057L39.3188 87.7866C39.3231 87.3169 39.3929 86.8831 39.5283 86.4854C39.6637 86.0833 39.8542 85.7342 40.0996 85.438C40.3451 85.1418 40.637 84.9132 40.9756 84.7524C41.3184 84.5874 41.6971 84.5049 42.1118 84.5049C42.4504 84.5049 42.755 84.5514 43.0259 84.6445C43.2967 84.7334 43.5273 84.8773 43.7178 85.0762C43.9124 85.2751 44.0605 85.5332 44.1621 85.8506C44.2637 86.1637 44.3145 86.5467 44.3145 86.9995V91.5H43.1338V86.9868C43.1338 86.6271 43.0809 86.3394 42.9751 86.1235C42.8693 85.9035 42.7148 85.7448 42.5117 85.6475C42.3086 85.5459 42.0589 85.4951 41.7627 85.4951C41.4707 85.4951 41.2041 85.5565 40.9629 85.6792C40.7259 85.8019 40.5207 85.9712 40.3472 86.187C40.1779 86.4028 40.0446 86.6504 39.9473 86.9297C39.8542 87.2048 39.8076 87.4967 39.8076 87.8057ZM50.4272 90.167V81.75H51.6079V91.5H50.5288L50.4272 90.167ZM45.8062 88.1421V88.0088C45.8062 87.484 45.8696 87.008 45.9966 86.5806C46.1278 86.1489 46.3118 85.7786 46.5488 85.4697C46.79 85.1608 47.0757 84.9238 47.4058 84.7588C47.7401 84.5895 48.1125 84.5049 48.5229 84.5049C48.9546 84.5049 49.3312 84.5811 49.6528 84.7334C49.9787 84.8815 50.2537 85.0994 50.478 85.3872C50.7065 85.6707 50.8864 86.0135 51.0176 86.4155C51.1488 86.8175 51.2397 87.2725 51.2905 87.7803V88.3643C51.244 88.8678 51.153 89.3206 51.0176 89.7227C50.8864 90.1247 50.7065 90.4674 50.478 90.751C50.2537 91.0345 49.9787 91.2524 49.6528 91.4048C49.327 91.5529 48.9461 91.627 48.5103 91.627C48.1082 91.627 47.7401 91.5402 47.4058 91.3667C47.0757 91.1932 46.79 90.9499 46.5488 90.6367C46.3118 90.3236 46.1278 89.9554 45.9966 89.5322C45.8696 89.1048 45.8062 88.6414 45.8062 88.1421ZM46.9868 88.0088V88.1421C46.9868 88.4849 47.0207 88.8065 47.0884 89.1069C47.1603 89.4074 47.2703 89.6719 47.4185 89.9004C47.5666 90.1289 47.7549 90.3088 47.9834 90.4399C48.2119 90.5669 48.4849 90.6304 48.8022 90.6304C49.1916 90.6304 49.5111 90.5479 49.7607 90.3828C50.0146 90.2178 50.2178 89.9998 50.3701 89.729C50.5225 89.4582 50.641 89.1641 50.7256 88.8467V87.3169C50.6748 87.0841 50.6007 86.8599 50.5034 86.644C50.4103 86.424 50.2876 86.2293 50.1353 86.0601C49.9871 85.8866 49.8031 85.749 49.583 85.6475C49.3672 85.5459 49.1112 85.4951 48.8149 85.4951C48.4933 85.4951 48.2161 85.5628 47.9834 85.6982C47.7549 85.8294 47.5666 86.0114 47.4185 86.2441C47.2703 86.4727 47.1603 86.7393 47.0884 87.0439C47.0207 87.3444 46.9868 87.666 46.9868 88.0088ZM60.9897 90.167V81.75H62.1704V91.5H61.0913L60.9897 90.167ZM56.3687 88.1421V88.0088C56.3687 87.484 56.4321 87.008 56.5591 86.5806C56.6903 86.1489 56.8743 85.7786 57.1113 85.4697C57.3525 85.1608 57.6382 84.9238 57.9683 84.7588C58.3026 84.5895 58.675 84.5049 59.0854 84.5049C59.5171 84.5049 59.8937 84.5811 60.2153 84.7334C60.5412 84.8815 60.8162 85.0994 61.0405 85.3872C61.269 85.6707 61.4489 86.0135 61.5801 86.4155C61.7113 86.8175 61.8022 87.2725 61.853 87.7803V88.3643C61.8065 88.8678 61.7155 89.3206 61.5801 89.7227C61.4489 90.1247 61.269 90.4674 61.0405 90.751C60.8162 91.0345 60.5412 91.2524 60.2153 91.4048C59.8895 91.5529 59.5086 91.627 59.0728 91.627C58.6707 91.627 58.3026 91.5402 57.9683 91.3667C57.6382 91.1932 57.3525 90.9499 57.1113 90.6367C56.8743 90.3236 56.6903 89.9554 56.5591 89.5322C56.4321 89.1048 56.3687 88.6414 56.3687 88.1421ZM57.5493 88.0088V88.1421C57.5493 88.4849 57.5832 88.8065 57.6509 89.1069C57.7228 89.4074 57.8328 89.6719 57.981 89.9004C58.1291 90.1289 58.3174 90.3088 58.5459 90.4399C58.7744 90.5669 59.0474 90.6304 59.3647 90.6304C59.7541 90.6304 60.0736 90.5479 60.3232 90.3828C60.5771 90.2178 60.7803 89.9998 60.9326 89.729C61.085 89.4582 61.2035 89.1641 61.2881 88.8467V87.3169C61.2373 87.0841 61.1632 86.8599 61.0659 86.644C60.9728 86.424 60.8501 86.2293 60.6978 86.0601C60.5496 85.8866 60.3656 85.749 60.1455 85.6475C59.9297 85.5459 59.6737 85.4951 59.3774 85.4951C59.0558 85.4951 58.7786 85.5628 58.5459 85.6982C58.3174 85.8294 58.1291 86.0114 57.981 86.2441C57.8328 86.4727 57.7228 86.7393 57.6509 87.0439C57.5832 87.3444 57.5493 87.666 57.5493 88.0088ZM65.1729 85.7109V91.5H63.9985V84.6318H65.1411L65.1729 85.7109ZM67.3184 84.5938L67.312 85.6855C67.2147 85.6644 67.1216 85.6517 67.0327 85.6475C66.9481 85.639 66.8507 85.6348 66.7407 85.6348C66.4699 85.6348 66.2308 85.6771 66.0234 85.7617C65.8161 85.8464 65.6405 85.9648 65.4966 86.1172C65.3527 86.2695 65.2384 86.4515 65.1538 86.6631C65.0734 86.8704 65.0205 87.099 64.9951 87.3486L64.665 87.5391C64.665 87.1243 64.7052 86.735 64.7856 86.3711C64.8703 86.0072 64.9993 85.6855 65.1729 85.4062C65.3464 85.1227 65.5664 84.9027 65.833 84.7461C66.1038 84.5853 66.4255 84.5049 66.7979 84.5049C66.8825 84.5049 66.9798 84.5155 67.0898 84.5366C67.1999 84.5535 67.276 84.5726 67.3184 84.5938ZM67.9658 88.1421V87.9961C67.9658 87.501 68.0378 87.0418 68.1816 86.6187C68.3255 86.1912 68.5329 85.821 68.8037 85.5078C69.0745 85.1904 69.4025 84.945 69.7876 84.7715C70.1727 84.5938 70.6043 84.5049 71.0825 84.5049C71.5649 84.5049 71.9987 84.5938 72.3838 84.7715C72.7731 84.945 73.1032 85.1904 73.374 85.5078C73.6491 85.821 73.8586 86.1912 74.0024 86.6187C74.1463 87.0418 74.2183 87.501 74.2183 87.9961V88.1421C74.2183 88.6372 74.1463 89.0964 74.0024 89.5195C73.8586 89.9427 73.6491 90.313 73.374 90.6304C73.1032 90.9435 72.7752 91.189 72.3901 91.3667C72.0093 91.5402 71.5776 91.627 71.0952 91.627C70.6128 91.627 70.179 91.5402 69.7939 91.3667C69.4089 91.189 69.0788 90.9435 68.8037 90.6304C68.5329 90.313 68.3255 89.9427 68.1816 89.5195C68.0378 89.0964 67.9658 88.6372 67.9658 88.1421ZM69.1401 87.9961V88.1421C69.1401 88.4849 69.1803 88.8086 69.2607 89.1133C69.3411 89.4137 69.4618 89.6803 69.6226 89.9131C69.7876 90.1458 69.9928 90.3299 70.2383 90.4653C70.4837 90.5965 70.7694 90.6621 71.0952 90.6621C71.4168 90.6621 71.6982 90.5965 71.9395 90.4653C72.1849 90.3299 72.388 90.1458 72.5488 89.9131C72.7096 89.6803 72.8302 89.4137 72.9106 89.1133C72.9953 88.8086 73.0376 88.4849 73.0376 88.1421V87.9961C73.0376 87.6576 72.9953 87.3381 72.9106 87.0376C72.8302 86.7329 72.7075 86.4642 72.5425 86.2314C72.3817 85.9945 72.1785 85.8083 71.9331 85.6729C71.6919 85.5374 71.4084 85.4697 71.0825 85.4697C70.7609 85.4697 70.4774 85.5374 70.2319 85.6729C69.9907 85.8083 69.7876 85.9945 69.6226 86.2314C69.4618 86.4642 69.3411 86.7329 69.2607 87.0376C69.1803 87.3381 69.1401 87.6576 69.1401 87.9961ZM76.8652 85.9521V94.1406H75.6846V84.6318H76.7637L76.8652 85.9521ZM81.4927 88.0088V88.1421C81.4927 88.6414 81.4334 89.1048 81.3149 89.5322C81.1965 89.9554 81.0229 90.3236 80.7944 90.6367C80.5701 90.9499 80.293 91.1932 79.9629 91.3667C79.6328 91.5402 79.2541 91.627 78.8267 91.627C78.3908 91.627 78.0057 91.555 77.6714 91.4111C77.3371 91.2673 77.0535 91.0578 76.8208 90.7827C76.5881 90.5076 76.4019 90.1776 76.2622 89.7925C76.1268 89.4074 76.0337 88.9736 75.9829 88.4912V87.7803C76.0337 87.2725 76.1289 86.8175 76.2686 86.4155C76.4082 86.0135 76.5923 85.6707 76.8208 85.3872C77.0535 85.0994 77.335 84.8815 77.665 84.7334C77.9951 84.5811 78.376 84.5049 78.8076 84.5049C79.2393 84.5049 79.6222 84.5895 79.9565 84.7588C80.2909 84.9238 80.5723 85.1608 80.8008 85.4697C81.0293 85.7786 81.2007 86.1489 81.3149 86.5806C81.4334 87.008 81.4927 87.484 81.4927 88.0088ZM80.312 88.1421V88.0088C80.312 87.666 80.276 87.3444 80.2041 87.0439C80.1322 86.7393 80.02 86.4727 79.8677 86.2441C79.7196 86.0114 79.5291 85.8294 79.2964 85.6982C79.0636 85.5628 78.7865 85.4951 78.4648 85.4951C78.1686 85.4951 77.9105 85.5459 77.6904 85.6475C77.4746 85.749 77.2905 85.8866 77.1382 86.0601C76.9858 86.2293 76.861 86.424 76.7637 86.644C76.6706 86.8599 76.6007 87.0841 76.5542 87.3169V88.9609C76.6388 89.2572 76.7573 89.5365 76.9097 89.7988C77.062 90.057 77.2651 90.2664 77.519 90.4272C77.7729 90.5838 78.0924 90.6621 78.4775 90.6621C78.7949 90.6621 79.0679 90.5965 79.2964 90.4653C79.5291 90.3299 79.7196 90.1458 79.8677 89.9131C80.02 89.6803 80.1322 89.4137 80.2041 89.1133C80.276 88.8086 80.312 88.4849 80.312 88.1421ZM90.2651 90.3257V86.79C90.2651 86.5192 90.2101 86.2843 90.1001 86.0854C89.9943 85.8823 89.8335 85.7257 89.6177 85.6157C89.4019 85.5057 89.1353 85.4507 88.8179 85.4507C88.5216 85.4507 88.2614 85.5015 88.0371 85.603C87.8171 85.7046 87.6436 85.8379 87.5166 86.0029C87.3939 86.168 87.3325 86.3457 87.3325 86.5361H86.1582C86.1582 86.2907 86.2217 86.0474 86.3486 85.8062C86.4756 85.5649 86.6576 85.347 86.8945 85.1523C87.1357 84.9535 87.4235 84.7969 87.7578 84.6826C88.0964 84.5641 88.473 84.5049 88.8877 84.5049C89.387 84.5049 89.8271 84.5895 90.208 84.7588C90.5931 84.9281 90.8936 85.1841 91.1094 85.5269C91.3294 85.8654 91.4395 86.2907 91.4395 86.8027V90.002C91.4395 90.2305 91.4585 90.4738 91.4966 90.7319C91.5389 90.9901 91.6003 91.2122 91.6807 91.3984V91.5H90.4556C90.3963 91.3646 90.3498 91.1847 90.3159 90.9604C90.2821 90.7319 90.2651 90.5203 90.2651 90.3257ZM90.4683 87.3359L90.481 88.1611H89.2939C88.9596 88.1611 88.6613 88.1886 88.3989 88.2437C88.1366 88.2944 87.9165 88.3727 87.7388 88.4785C87.561 88.5843 87.4256 88.7176 87.3325 88.8784C87.2394 89.035 87.1929 89.2191 87.1929 89.4307C87.1929 89.6465 87.2415 89.8433 87.3389 90.021C87.4362 90.1987 87.5822 90.3405 87.7769 90.4463C87.9757 90.5479 88.2191 90.5986 88.5068 90.5986C88.8665 90.5986 89.1839 90.5225 89.459 90.3701C89.734 90.2178 89.952 90.0316 90.1128 89.8115C90.2778 89.5915 90.3667 89.3778 90.3794 89.1704L90.8809 89.7354C90.8512 89.9131 90.7708 90.1099 90.6396 90.3257C90.5085 90.5415 90.3328 90.7489 90.1128 90.9478C89.897 91.1424 89.6388 91.3053 89.3384 91.4365C89.0422 91.5635 88.7078 91.627 88.3354 91.627C87.87 91.627 87.4616 91.536 87.1104 91.354C86.7633 91.172 86.4925 90.9287 86.2979 90.624C86.1074 90.3151 86.0122 89.9702 86.0122 89.5894C86.0122 89.2212 86.0841 88.8975 86.228 88.6182C86.3719 88.3346 86.5793 88.0998 86.8501 87.9136C87.1209 87.7231 87.4468 87.5793 87.8276 87.4819C88.2085 87.3846 88.6338 87.3359 89.1035 87.3359H90.4683ZM98.0791 91.5H96.9048V84.0352C96.9048 83.5146 97.0063 83.0745 97.2095 82.7148C97.4126 82.3551 97.7025 82.0822 98.0791 81.896C98.4557 81.7098 98.9022 81.6167 99.4185 81.6167C99.7231 81.6167 100.021 81.6548 100.313 81.731C100.605 81.8029 100.906 81.8939 101.215 82.0039L101.018 82.9941C100.823 82.918 100.597 82.846 100.339 82.7783C100.085 82.7064 99.8057 82.6704 99.501 82.6704C98.9974 82.6704 98.6335 82.7847 98.4092 83.0132C98.1891 83.2375 98.0791 83.5781 98.0791 84.0352V91.5ZM99.4819 84.6318V85.5332H95.8193V84.6318H99.4819ZM101.792 84.6318V91.5H100.618V84.6318H101.792ZM104.998 81.75V91.5H103.817V81.75H104.998ZM109.733 91.627C109.255 91.627 108.821 91.5465 108.432 91.3857C108.047 91.2207 107.715 90.9901 107.436 90.6938C107.16 90.3976 106.949 90.0464 106.801 89.6401C106.653 89.2339 106.579 88.7896 106.579 88.3071V88.0405C106.579 87.4819 106.661 86.9847 106.826 86.5488C106.991 86.1087 107.215 85.7363 107.499 85.4316C107.783 85.127 108.104 84.8963 108.464 84.7397C108.824 84.5832 109.196 84.5049 109.581 84.5049C110.072 84.5049 110.495 84.5895 110.851 84.7588C111.21 84.9281 111.504 85.165 111.733 85.4697C111.961 85.7702 112.131 86.1257 112.241 86.5361C112.351 86.9424 112.406 87.3867 112.406 87.8691V88.396H107.277V87.4375H111.231V87.3486C111.215 87.0439 111.151 86.7477 111.041 86.46C110.935 86.1722 110.766 85.9352 110.533 85.749C110.3 85.5628 109.983 85.4697 109.581 85.4697C109.314 85.4697 109.069 85.5269 108.845 85.6411C108.62 85.7511 108.428 85.9162 108.267 86.1362C108.106 86.3563 107.981 86.625 107.893 86.9424C107.804 87.2598 107.759 87.6258 107.759 88.0405V88.3071C107.759 88.633 107.804 88.9398 107.893 89.2275C107.986 89.5111 108.119 89.7607 108.292 89.9766C108.47 90.1924 108.684 90.3617 108.934 90.4844C109.188 90.6071 109.475 90.6685 109.797 90.6685C110.212 90.6685 110.563 90.5838 110.851 90.4146C111.138 90.2453 111.39 90.0189 111.606 89.7354L112.317 90.3003C112.169 90.5246 111.98 90.7383 111.752 90.9414C111.523 91.1445 111.242 91.3096 110.908 91.4365C110.578 91.5635 110.186 91.627 109.733 91.627ZM118.176 81.75V91.5H117.001V81.75H118.176ZM117.896 87.8057L117.408 87.7866C117.412 87.3169 117.482 86.8831 117.617 86.4854C117.753 86.0833 117.943 85.7342 118.188 85.438C118.434 85.1418 118.726 84.9132 119.064 84.7524C119.407 84.5874 119.786 84.5049 120.201 84.5049C120.539 84.5049 120.844 84.5514 121.115 84.6445C121.386 84.7334 121.616 84.8773 121.807 85.0762C122.001 85.2751 122.149 85.5332 122.251 85.8506C122.353 86.1637 122.403 86.5467 122.403 86.9995V91.5H121.223V86.9868C121.223 86.6271 121.17 86.3394 121.064 86.1235C120.958 85.9035 120.804 85.7448 120.601 85.6475C120.397 85.5459 120.148 85.4951 119.852 85.4951C119.56 85.4951 119.293 85.5565 119.052 85.6792C118.815 85.8019 118.61 85.9712 118.436 86.187C118.267 86.4028 118.133 86.6504 118.036 86.9297C117.943 87.2048 117.896 87.4967 117.896 87.8057ZM127.012 91.627C126.534 91.627 126.1 91.5465 125.71 91.3857C125.325 91.2207 124.993 90.9901 124.714 90.6938C124.439 90.3976 124.227 90.0464 124.079 89.6401C123.931 89.2339 123.857 88.7896 123.857 88.3071V88.0405C123.857 87.4819 123.939 86.9847 124.104 86.5488C124.27 86.1087 124.494 85.7363 124.777 85.4316C125.061 85.127 125.382 84.8963 125.742 84.7397C126.102 84.5832 126.474 84.5049 126.859 84.5049C127.35 84.5049 127.773 84.5895 128.129 84.7588C128.489 84.9281 128.783 85.165 129.011 85.4697C129.24 85.7702 129.409 86.1257 129.519 86.5361C129.629 86.9424 129.684 87.3867 129.684 87.8691V88.396H124.555V87.4375H128.51V87.3486C128.493 87.0439 128.429 86.7477 128.319 86.46C128.214 86.1722 128.044 85.9352 127.812 85.749C127.579 85.5628 127.261 85.4697 126.859 85.4697C126.593 85.4697 126.347 85.5269 126.123 85.6411C125.899 85.7511 125.706 85.9162 125.545 86.1362C125.385 86.3563 125.26 86.625 125.171 86.9424C125.082 87.2598 125.038 87.6258 125.038 88.0405V88.3071C125.038 88.633 125.082 88.9398 125.171 89.2275C125.264 89.5111 125.397 89.7607 125.571 89.9766C125.749 90.1924 125.962 90.3617 126.212 90.4844C126.466 90.6071 126.754 90.6685 127.075 90.6685C127.49 90.6685 127.841 90.5838 128.129 90.4146C128.417 90.2453 128.668 90.0189 128.884 89.7354L129.595 90.3003C129.447 90.5246 129.259 90.7383 129.03 90.9414C128.802 91.1445 128.52 91.3096 128.186 91.4365C127.856 91.5635 127.465 91.627 127.012 91.627ZM132.229 85.7109V91.5H131.055V84.6318H132.198L132.229 85.7109ZM134.375 84.5938L134.369 85.6855C134.271 85.6644 134.178 85.6517 134.089 85.6475C134.005 85.639 133.907 85.6348 133.797 85.6348C133.527 85.6348 133.287 85.6771 133.08 85.7617C132.873 85.8464 132.697 85.9648 132.553 86.1172C132.409 86.2695 132.295 86.4515 132.21 86.6631C132.13 86.8704 132.077 87.099 132.052 87.3486L131.722 87.5391C131.722 87.1243 131.762 86.735 131.842 86.3711C131.927 86.0072 132.056 85.6855 132.229 85.4062C132.403 85.1227 132.623 84.9027 132.89 84.7461C133.16 84.5853 133.482 84.5049 133.854 84.5049C133.939 84.5049 134.036 84.5155 134.146 84.5366C134.257 84.5535 134.333 84.5726 134.375 84.5938ZM138.184 91.627C137.705 91.627 137.272 91.5465 136.882 91.3857C136.497 91.2207 136.165 90.9901 135.886 90.6938C135.611 90.3976 135.399 90.0464 135.251 89.6401C135.103 89.2339 135.029 88.7896 135.029 88.3071V88.0405C135.029 87.4819 135.111 86.9847 135.276 86.5488C135.441 86.1087 135.666 85.7363 135.949 85.4316C136.233 85.127 136.554 84.8963 136.914 84.7397C137.274 84.5832 137.646 84.5049 138.031 84.5049C138.522 84.5049 138.945 84.5895 139.301 84.7588C139.66 84.9281 139.955 85.165 140.183 85.4697C140.412 85.7702 140.581 86.1257 140.691 86.5361C140.801 86.9424 140.856 87.3867 140.856 87.8691V88.396H135.727V87.4375H139.682V87.3486C139.665 87.0439 139.601 86.7477 139.491 86.46C139.385 86.1722 139.216 85.9352 138.983 85.749C138.751 85.5628 138.433 85.4697 138.031 85.4697C137.765 85.4697 137.519 85.5269 137.295 85.6411C137.071 85.7511 136.878 85.9162 136.717 86.1362C136.556 86.3563 136.432 86.625 136.343 86.9424C136.254 87.2598 136.209 87.6258 136.209 88.0405V88.3071C136.209 88.633 136.254 88.9398 136.343 89.2275C136.436 89.5111 136.569 89.7607 136.743 89.9766C136.92 90.1924 137.134 90.3617 137.384 90.4844C137.638 90.6071 137.925 90.6685 138.247 90.6685C138.662 90.6685 139.013 90.5838 139.301 90.4146C139.589 90.2453 139.84 90.0189 140.056 89.7354L140.767 90.3003C140.619 90.5246 140.431 90.7383 140.202 90.9414C139.974 91.1445 139.692 91.3096 139.358 91.4365C139.028 91.5635 138.636 91.627 138.184 91.627Z" fill="#232222" fill-opacity="0.35"/>
</svg>
