<svg width="21" height="21" viewBox="0 0 21 21" fill="none" xmlns="http://www.w3.org/2000/svg">
<path d="M10.5 1.75C9.63471 1.75 8.78885 2.00659 8.06938 2.48732C7.34992 2.96805 6.78916 3.65133 6.45803 4.45076C6.12689 5.25019 6.04025 6.12985 6.20906 6.97852C6.37787 7.82719 6.79455 8.60674 7.40641 9.21859C8.01826 9.83045 8.79781 10.2471 9.64648 10.4159C10.4951 10.5847 11.3748 10.4981 12.1742 10.167C12.9737 9.83584 13.6569 9.27508 14.1377 8.55562C14.6184 7.83615 14.875 6.99029 14.875 6.125C14.875 4.96468 14.4141 3.85188 13.5936 3.03141C12.7731 2.21094 11.6603 1.75 10.5 1.75ZM10.5 8.75C9.98082 8.75 9.47331 8.59605 9.04163 8.30761C8.60995 8.01917 8.2735 7.6092 8.07482 7.12954C7.87614 6.64989 7.82415 6.12209 7.92544 5.61289C8.02672 5.10369 8.27673 4.63596 8.64384 4.26884C9.01096 3.90173 9.47869 3.65173 9.98789 3.55044C10.4971 3.44915 11.0249 3.50114 11.5045 3.69982C11.9842 3.8985 12.3942 4.23495 12.6826 4.66663C12.971 5.09831 13.125 5.60582 13.125 6.125C13.125 6.82119 12.8484 7.48887 12.3562 7.98116C11.8639 8.47344 11.1962 8.75 10.5 8.75ZM18.375 18.375V17.5C18.375 15.8755 17.7297 14.3176 16.581 13.169C15.4324 12.0203 13.8745 11.375 12.25 11.375H8.75C7.12555 11.375 5.56763 12.0203 4.41897 13.169C3.27031 14.3176 2.625 15.8755 2.625 17.5V18.375H4.375V17.5C4.375 16.3397 4.83594 15.2269 5.65641 14.4064C6.47688 13.5859 7.58968 13.125 8.75 13.125H12.25C13.4103 13.125 14.5231 13.5859 15.3436 14.4064C16.1641 15.2269 16.625 16.3397 16.625 17.5V18.375H18.375Z" fill="#494949"/>
</svg>
