<svg width="12" height="8" viewBox="0 0 12 8" fill="none" xmlns="http://www.w3.org/2000/svg">
<path d="M11.5927 3.84812C11.5762 3.81109 11.1792 2.93031 10.2966 2.04766C9.12046 0.871562 7.635 0.25 6 0.25C4.365 0.25 2.87953 0.871562 1.70343 2.04766C0.820777 2.93031 0.421871 3.8125 0.407339 3.84812C0.386017 3.89608 0.375 3.94798 0.375 4.00047C0.375 4.05295 0.386017 4.10485 0.407339 4.15281C0.423746 4.18984 0.820777 5.07016 1.70343 5.95281C2.87953 7.12844 4.365 7.75 6 7.75C7.635 7.75 9.12046 7.12844 10.2966 5.95281C11.1792 5.07016 11.5762 4.18984 11.5927 4.15281C11.614 4.10485 11.625 4.05295 11.625 4.00047C11.625 3.94798 11.614 3.89608 11.5927 3.84812ZM6 7C4.55718 7 3.29671 6.47547 2.25328 5.44141C1.82516 5.01562 1.46091 4.53012 1.17187 4C1.4608 3.4698 1.82506 2.98429 2.25328 2.55859C3.29671 1.52453 4.55718 1 6 1C7.44281 1 8.70328 1.52453 9.74671 2.55859C10.1757 2.98422 10.5407 3.46973 10.8305 4C10.4925 4.63094 9.02015 7 6 7ZM6 1.75C5.55499 1.75 5.11997 1.88196 4.74996 2.12919C4.37995 2.37643 4.09156 2.72783 3.92127 3.13896C3.75097 3.5501 3.70641 4.0025 3.79323 4.43895C3.88005 4.87541 4.09434 5.27632 4.40901 5.59099C4.72367 5.90566 5.12459 6.11995 5.56104 6.20677C5.9975 6.29358 6.4499 6.24903 6.86103 6.07873C7.27217 5.90843 7.62357 5.62004 7.8708 5.25003C8.11804 4.88002 8.25 4.44501 8.25 4C8.24938 3.40345 8.01212 2.83152 7.5903 2.4097C7.16848 1.98787 6.59654 1.75062 6 1.75ZM6 5.5C5.70332 5.5 5.41331 5.41203 5.16664 5.2472C4.91997 5.08238 4.72771 4.84811 4.61418 4.57403C4.50064 4.29994 4.47094 3.99834 4.52882 3.70736C4.5867 3.41639 4.72956 3.14912 4.93933 2.93934C5.14911 2.72956 5.41639 2.5867 5.70736 2.52882C5.99833 2.47094 6.29993 2.50065 6.57402 2.61418C6.84811 2.72771 7.08238 2.91997 7.2472 3.16664C7.41202 3.41332 7.5 3.70333 7.5 4C7.5 4.39782 7.34196 4.77936 7.06066 5.06066C6.77935 5.34196 6.39782 5.5 6 5.5Z" fill="#232222" fill-opacity="0.35"/>
</svg>
