<svg width="46" height="46" viewBox="0 0 46 46" fill="none" xmlns="http://www.w3.org/2000/svg">
<path d="M22.6178 0C20.8339 0.0303714 19.5528 0.323962 18.7028 0.850399L7.05355 6.1249L0.576442 13.575C-0.788419 15.3568 0.181351 18.7989 4.44355 16.5919L9.11281 11.3883C15.0392 7.06642 27.1314 9.04967 21.3966 17.7258C18.583 22.7472 19.9 25.1971 23.5277 26.2298L25.1799 21.5323C28.0413 16.0857 33.381 15.1037 33.1655 10.71L46 11.4895L45.8803 0.141733L22.6178 0ZM16.1407 10.467C14.0574 10.4366 12.0102 11.1655 10.5256 12.2184L5.84433 17.4221C7.12538 18.2826 8.41841 17.8169 9.69946 16.7741C11.208 17.4221 12.3813 16.4198 13.3391 14.4153C13.7342 13.0486 14.3208 12.0868 16.1407 10.467ZM6.61057 20.1859C6.56268 20.1859 6.50281 20.1859 6.45492 20.196C6.05983 20.2668 5.59291 20.6212 5.28162 21.4311C4.95837 22.241 4.88653 23.3951 5.17387 24.6302C5.46121 25.8552 6.05983 26.8979 6.73029 27.5459C7.37681 28.1837 7.97543 28.3659 8.37052 28.295C8.77758 28.2343 9.23254 27.8698 9.54382 27.07C9.86708 26.2601 9.95089 25.0959 9.66355 23.8709C9.36423 22.6358 8.76561 21.5931 8.10713 20.9553C7.53245 20.3883 7.00566 20.1859 6.61057 20.1859ZM16.4998 30.9981C15.554 31.0082 14.3687 31.2613 13.2074 31.7371C11.8785 32.2939 10.8369 33.0633 10.2741 33.772C9.71144 34.4705 9.66355 34.997 9.84313 35.3108C10.0227 35.6145 10.5495 35.9081 11.5552 35.9486C12.5609 35.9992 13.9138 35.7664 15.2427 35.2096C16.5717 34.6528 17.6133 33.8935 18.176 33.1848C18.7387 32.4863 18.7866 31.9497 18.607 31.646C18.4274 31.3322 17.9006 31.0487 16.8949 31.0082C16.7632 30.9981 16.6435 30.9981 16.4998 30.9981ZM4.8147 40.6764C4.25199 40.6866 3.73717 40.7574 3.28222 40.8688C2.26456 41.1219 1.67791 41.5774 1.48635 42.114C1.28282 42.6607 1.48635 43.3086 2.16878 44.0072C2.86318 44.6956 4.02451 45.3536 5.46121 45.7181C6.88594 46.0825 8.27474 46.0724 9.30437 45.8092C10.334 45.5561 10.9207 45.1005 11.1122 44.564C11.3038 44.0173 11.1122 43.3694 10.4178 42.6708C9.73538 41.9824 8.57405 41.3244 7.13736 40.9599C6.32323 40.7574 5.53304 40.6663 4.8147 40.6764Z" fill="#494949"/>
</svg>
