<svg width="12" height="12" viewBox="0 0 12 12" fill="none" xmlns="http://www.w3.org/2000/svg">
<path d="M2.625 5.625H10.125C10.2245 5.625 10.3198 5.66451 10.3902 5.73484C10.4605 5.80516 10.5 5.90054 10.5 6C10.5 6.09946 10.4605 6.19484 10.3902 6.26517C10.3198 6.33549 10.2245 6.375 10.125 6.375H2.625C2.52554 6.375 2.43016 6.33549 2.35984 6.26517C2.28951 6.19484 2.25 6.09946 2.25 6C2.25 5.90054 2.28951 5.80516 2.35984 5.73484C2.43016 5.66451 2.52554 5.625 2.625 5.625Z" fill="white"/>
<path d="M2.77994 6.00047L5.89019 9.10997C5.96061 9.18039 6.00017 9.27589 6.00017 9.37547C6.00017 9.47506 5.96061 9.57056 5.89019 9.64097C5.81978 9.71139 5.72428 9.75095 5.62469 9.75095C5.52511 9.75095 5.42961 9.71139 5.35919 9.64097L1.98419 6.26597C1.94927 6.23114 1.92156 6.18976 1.90266 6.1442C1.88375 6.09864 1.87402 6.0498 1.87402 6.00047C1.87402 5.95115 1.88375 5.90231 1.90266 5.85675C1.92156 5.81119 1.94927 5.76981 1.98419 5.73497L5.35919 2.35997C5.42961 2.28956 5.52511 2.25 5.62469 2.25C5.72428 2.25 5.81978 2.28956 5.89019 2.35997C5.96061 2.43039 6.00017 2.52589 6.00017 2.62547C6.00017 2.72506 5.96061 2.82056 5.89019 2.89097L2.77994 6.00047Z" fill="white"/>
</svg>
