<svg width="21" height="21" viewBox="0 0 21 21" fill="none" xmlns="http://www.w3.org/2000/svg">
<path d="M7.65625 8.75C7.65625 7.99579 7.95586 7.27247 8.48917 6.73917C9.02247 6.20586 9.74579 5.90625 10.5 5.90625C11.2542 5.90625 11.9775 6.20586 12.5108 6.73917C13.0441 7.27247 13.3438 7.99579 13.3438 8.75C13.3438 9.50421 13.0441 10.2275 12.5108 10.7608C11.9775 11.2941 11.2542 11.5938 10.5 11.5938C9.74579 11.5938 9.02247 11.2941 8.48917 10.7608C7.95586 10.2275 7.65625 9.50421 7.65625 8.75Z" fill="#99A0A8"/>
<path fill-rule="evenodd" clip-rule="evenodd" d="M3.30308 7.76737C3.44823 6.00826 4.24951 4.36803 5.54787 3.17227C6.84623 1.97652 8.54673 1.31267 10.3118 1.3125H10.6898C12.4549 1.31267 14.1554 1.97652 15.4538 3.17227C16.7521 4.36803 17.5534 6.00826 17.6986 7.76737C17.8607 9.7313 17.2544 11.6815 16.0072 13.2072L11.8133 18.3365C11.6544 18.5311 11.4541 18.6878 11.2272 18.7955C11.0002 18.9032 10.7521 18.959 10.5008 18.959C10.2496 18.959 10.0015 18.9032 9.7745 18.7955C9.54751 18.6878 9.34728 18.5311 9.18833 18.3365L4.99533 13.2072C3.74784 11.6816 3.14116 9.73142 3.30308 7.76737ZM10.5008 4.59375C9.39852 4.59375 8.34136 5.03164 7.56191 5.81109C6.78247 6.59054 6.34458 7.64769 6.34458 8.75C6.34458 9.85231 6.78247 10.9095 7.56191 11.6889C8.34136 12.4684 9.39852 12.9062 10.5008 12.9062C11.6031 12.9062 12.6603 12.4684 13.4397 11.6889C14.2192 10.9095 14.6571 9.85231 14.6571 8.75C14.6571 7.64769 14.2192 6.59054 13.4397 5.81109C12.6603 5.03164 11.6031 4.59375 10.5008 4.59375Z" fill="#99A0A8"/>
</svg>
