<svg width="21" height="21" viewBox="0 0 21 21" fill="none" xmlns="http://www.w3.org/2000/svg">
<path d="M10.5 19.6875C5.43375 19.6875 1.3125 15.5662 1.3125 10.5C1.3125 5.43375 5.43375 1.3125 10.5 1.3125C15.5662 1.3125 19.6875 5.43375 19.6875 10.5C19.6875 15.5662 15.5662 19.6875 10.5 19.6875ZM10.5 2.625C6.15562 2.625 2.625 6.15562 2.625 10.5C2.625 14.8444 6.15562 18.375 10.5 18.375C14.8444 18.375 18.375 14.8444 18.375 10.5C18.375 6.15562 14.8444 2.625 10.5 2.625Z" fill="#494949"/>
<path d="M13.125 13.7812C13.0069 13.7812 12.8888 13.755 12.7838 13.6894L9.50251 11.7206C9.40577 11.6617 9.32591 11.5788 9.27071 11.4799C9.21552 11.381 9.18685 11.2695 9.18751 11.1562V5.90625C9.18751 5.53875 9.47626 5.25 9.84376 5.25C10.2113 5.25 10.5 5.53875 10.5 5.90625V10.7888L13.4663 12.5606C13.5884 12.6355 13.6829 12.7482 13.7352 12.8816C13.7876 13.015 13.7951 13.1618 13.7565 13.2998C13.7179 13.4378 13.6354 13.5595 13.5214 13.6463C13.4075 13.7332 13.2683 13.7806 13.125 13.7812Z" fill="#494949"/>
</svg>
